<svg width="24" height="26" viewBox="0 0 24 26" fill="none" xmlns="http://www.w3.org/2000/svg">
<path d="M5.84874 22C4.77311 22 3.85434 21.7993 3.09244 21.3978C2.37535 20.9963 1.79272 20.4387 1.34454 19.7249C0.896359 19.0558 0.560224 18.2528 0.336135 17.316C0.112045 16.3346 0 15.4201 0 14.5725C0 12.342 0.560224 10.3123 1.68067 8.48327C2.84594 6.60966 4.61625 5.11524 6.9916 4L7.59664 5.20446C6.29692 5.73978 5.15406 6.58736 4.16807 7.74721C3.22689 8.90706 2.66667 10.0892 2.4874 11.2937C2.35294 12.1413 2.37535 12.9219 2.55462 13.6357C3.45098 12.7435 4.59384 12.2974 5.98319 12.2974C7.41737 12.2974 8.60504 12.7212 9.54622 13.5688C10.4874 14.4164 10.958 15.6208 10.958 17.1822C10.958 18.6097 10.465 19.7695 9.47899 20.6617C8.493 21.5539 7.28291 22 5.84874 22ZM18.8908 22C17.8151 22 16.8964 21.7993 16.1345 21.3978C15.4174 20.9963 14.8347 20.4387 14.3866 19.7249C13.9384 19.0558 13.6022 18.2528 13.3782 17.316C13.1541 16.3346 13.042 15.4201 13.042 14.5725C13.042 12.342 13.6022 10.3123 14.7227 8.48327C15.888 6.60966 17.6583 5.11524 20.0336 4L20.6387 5.20446C19.3389 5.73978 18.1961 6.58736 17.2101 7.74721C16.2689 8.90706 15.7087 10.0892 15.5294 11.2937C15.395 12.1413 15.4174 12.9219 15.5966 13.6357C16.493 12.7435 17.6359 12.2974 19.0252 12.2974C20.4594 12.2974 21.6471 12.7212 22.5882 13.5688C23.5294 14.4164 24 15.6208 24 17.1822C24 18.6097 23.507 19.7695 22.521 20.6617C21.535 21.5539 20.3249 22 18.8908 22Z" fill="#B76244"/>
</svg>
