<svg width="311" height="55" viewBox="0 0 311 55" fill="none" xmlns="http://www.w3.org/2000/svg">
<path d="M304.318 25.2483H303.738L305.416 20.6797H305.987L307.664 25.2483H307.084L305.719 21.4025H305.684L304.318 25.2483ZM304.532 23.4637H306.87V23.9544H304.532V23.4637Z" fill="#DCCBB7"/>
<path d="M296.66 20.6797H297.32L298.873 24.472H298.927L300.479 20.6797H301.14V25.2483H300.622V21.7772H300.577L299.15 25.2483H298.65L297.222 21.7772H297.178V25.2483H296.66V20.6797Z" fill="#DCCBB7"/>
<path d="M291.021 25.2483V20.6797H293.779V21.1705H291.575V22.7141H293.636V23.2049H291.575V24.7575H293.814V25.2483H291.021Z" fill="#DCCBB7"/>
<path d="M284.859 21.1705V20.6797H288.286V21.1705H286.849V25.2483H286.296V21.1705H284.859Z" fill="#DCCBB7"/>
<path d="M281.718 21.8218C281.691 21.5958 281.582 21.4203 281.392 21.2954C281.202 21.1705 280.968 21.1081 280.692 21.1081C280.489 21.1081 280.313 21.1408 280.161 21.2062C280.011 21.2716 279.893 21.3616 279.808 21.4761C279.725 21.5906 279.684 21.7207 279.684 21.8664C279.684 21.9883 279.713 22.0931 279.771 22.1808C279.83 22.2671 279.906 22.3392 279.998 22.3972C280.09 22.4537 280.187 22.5005 280.288 22.5377C280.389 22.5734 280.482 22.6024 280.567 22.6247L281.031 22.7496C281.15 22.7808 281.282 22.8239 281.428 22.8789C281.575 22.9339 281.715 23.009 281.849 23.1042C281.984 23.1978 282.096 23.3183 282.184 23.4655C282.271 23.6127 282.315 23.7933 282.315 24.0074C282.315 24.2542 282.251 24.4773 282.121 24.6765C281.993 24.8757 281.806 25.0341 281.559 25.1515C281.314 25.269 281.016 25.3277 280.665 25.3277C280.338 25.3277 280.055 25.2749 279.815 25.1694C279.577 25.0638 279.39 24.9166 279.253 24.7278C279.118 24.539 279.041 24.3197 279.023 24.0699H279.594C279.609 24.2423 279.667 24.3851 279.768 24.4981C279.871 24.6096 280 24.6928 280.156 24.7479C280.314 24.8014 280.484 24.8282 280.665 24.8282C280.876 24.8282 281.066 24.794 281.234 24.7256C281.402 24.6557 281.535 24.559 281.633 24.4356C281.731 24.3107 281.78 24.165 281.78 23.9985C281.78 23.8468 281.738 23.7234 281.653 23.6283C281.568 23.5331 281.457 23.4558 281.318 23.3963C281.18 23.3369 281.031 23.2848 280.87 23.2402L280.308 23.0796C279.951 22.977 279.669 22.8306 279.461 22.6403C279.252 22.45 279.148 22.2009 279.148 21.8931C279.148 21.6374 279.217 21.4144 279.356 21.2241C279.496 21.0323 279.683 20.8836 279.918 20.778C280.154 20.671 280.418 20.6174 280.71 20.6174C281.004 20.6174 281.266 20.6702 281.495 20.7758C281.724 20.8799 281.905 21.0226 282.039 21.204C282.174 21.3854 282.245 21.5913 282.253 21.8218H281.718Z" fill="#DCCBB7"/>
<path d="M276.227 20.6797V25.2483H275.674V20.6797H276.227Z" fill="#DCCBB7"/>
<path d="M272.282 21.8218C272.255 21.5958 272.147 21.4203 271.956 21.2954C271.766 21.1705 271.533 21.1081 271.256 21.1081C271.054 21.1081 270.877 21.1408 270.725 21.2062C270.575 21.2716 270.458 21.3616 270.373 21.4761C270.29 21.5906 270.248 21.7207 270.248 21.8664C270.248 21.9883 270.277 22.0931 270.335 22.1808C270.395 22.2671 270.47 22.3392 270.563 22.3972C270.655 22.4537 270.751 22.5005 270.852 22.5377C270.954 22.5734 271.046 22.6024 271.131 22.6247L271.595 22.7496C271.714 22.7808 271.846 22.8239 271.992 22.8789C272.139 22.9339 272.28 23.009 272.414 23.1042C272.549 23.1978 272.66 23.3183 272.748 23.4655C272.836 23.6127 272.88 23.7933 272.88 24.0074C272.88 24.2542 272.815 24.4773 272.686 24.6765C272.558 24.8757 272.371 25.0341 272.124 25.1515C271.878 25.269 271.58 25.3277 271.229 25.3277C270.902 25.3277 270.619 25.2749 270.38 25.1694C270.142 25.0638 269.954 24.9166 269.818 24.7278C269.682 24.539 269.606 24.3197 269.588 24.0699H270.159C270.174 24.2423 270.232 24.3851 270.333 24.4981C270.435 24.6096 270.565 24.6928 270.721 24.7479C270.878 24.8014 271.048 24.8282 271.229 24.8282C271.44 24.8282 271.63 24.794 271.798 24.7256C271.966 24.6557 272.099 24.559 272.197 24.4356C272.295 24.3107 272.344 24.165 272.344 23.9985C272.344 23.8468 272.302 23.7234 272.217 23.6283C272.133 23.5331 272.021 23.4558 271.883 23.3963C271.745 23.3369 271.595 23.2848 271.435 23.2402L270.873 23.0796C270.516 22.977 270.233 22.8306 270.025 22.6403C269.817 22.45 269.713 22.2009 269.713 21.8931C269.713 21.6374 269.782 21.4144 269.92 21.2241C270.06 21.0323 270.247 20.8836 270.482 20.778C270.719 20.671 270.983 20.6174 271.274 20.6174C271.568 20.6174 271.83 20.6702 272.059 20.7758C272.288 20.8799 272.469 21.0226 272.603 21.204C272.738 21.3854 272.81 21.5913 272.817 21.8218H272.282Z" fill="#DCCBB7"/>
<path d="M266.393 21.8218C266.367 21.5958 266.258 21.4203 266.068 21.2954C265.877 21.1705 265.644 21.1081 265.367 21.1081C265.165 21.1081 264.988 21.1408 264.837 21.2062C264.686 21.2716 264.569 21.3616 264.484 21.4761C264.401 21.5906 264.359 21.7207 264.359 21.8664C264.359 21.9883 264.388 22.0931 264.446 22.1808C264.506 22.2671 264.582 22.3392 264.674 22.3972C264.766 22.4537 264.863 22.5005 264.964 22.5377C265.065 22.5734 265.158 22.6024 265.243 22.6247L265.706 22.7496C265.825 22.7808 265.958 22.8239 266.103 22.8789C266.251 22.9339 266.391 23.009 266.525 23.1042C266.66 23.1978 266.772 23.3183 266.859 23.4655C266.947 23.6127 266.991 23.7933 266.991 24.0074C266.991 24.2542 266.926 24.4773 266.797 24.6765C266.669 24.8757 266.482 25.0341 266.235 25.1515C265.99 25.269 265.692 25.3277 265.341 25.3277C265.014 25.3277 264.73 25.2749 264.491 25.1694C264.253 25.0638 264.066 24.9166 263.929 24.7278C263.794 24.539 263.717 24.3197 263.699 24.0699H264.27C264.285 24.2423 264.343 24.3851 264.444 24.4981C264.547 24.6096 264.676 24.6928 264.832 24.7479C264.99 24.8014 265.159 24.8282 265.341 24.8282C265.552 24.8282 265.741 24.794 265.909 24.7256C266.077 24.6557 266.21 24.559 266.309 24.4356C266.407 24.3107 266.456 24.165 266.456 23.9985C266.456 23.8468 266.413 23.7234 266.329 23.6283C266.244 23.5331 266.132 23.4558 265.994 23.3963C265.856 23.3369 265.706 23.2848 265.546 23.2402L264.984 23.0796C264.627 22.977 264.345 22.8306 264.136 22.6403C263.928 22.45 263.824 22.2009 263.824 21.8931C263.824 21.6374 263.893 21.4144 264.032 21.2241C264.171 21.0323 264.359 20.8836 264.594 20.778C264.83 20.671 265.094 20.6174 265.385 20.6174C265.68 20.6174 265.941 20.6702 266.17 20.7758C266.399 20.8799 266.581 21.0226 266.715 21.204C266.85 21.3854 266.921 21.5913 266.929 21.8218H266.393Z" fill="#DCCBB7"/>
<path d="M261.079 22.9637C261.079 23.4454 260.992 23.8617 260.818 24.2126C260.644 24.5635 260.406 24.8341 260.102 25.0244C259.799 25.2147 259.453 25.3099 259.063 25.3099C258.673 25.3099 258.327 25.2147 258.024 25.0244C257.72 24.8341 257.482 24.5635 257.308 24.2126C257.134 23.8617 257.047 23.4454 257.047 22.9637C257.047 22.4819 257.134 22.0656 257.308 21.7147C257.482 21.3638 257.72 21.0932 258.024 20.9029C258.327 20.7126 258.673 20.6174 259.063 20.6174C259.453 20.6174 259.799 20.7126 260.102 20.9029C260.406 21.0932 260.644 21.3638 260.818 21.7147C260.992 22.0656 261.079 22.4819 261.079 22.9637ZM260.544 22.9637C260.544 22.5682 260.478 22.2344 260.345 21.9623C260.215 21.6902 260.037 21.4843 259.812 21.3445C259.589 21.2047 259.34 21.1349 259.063 21.1349C258.786 21.1349 258.536 21.2047 258.311 21.3445C258.088 21.4843 257.911 21.6902 257.778 21.9623C257.648 22.2344 257.582 22.5682 257.582 22.9637C257.582 23.3592 257.648 23.693 257.778 23.965C257.911 24.2371 258.088 24.4431 258.311 24.5828C258.536 24.7226 258.786 24.7925 259.063 24.7925C259.34 24.7925 259.589 24.7226 259.812 24.5828C260.037 24.4431 260.215 24.2371 260.345 23.965C260.478 23.693 260.544 23.3592 260.544 22.9637Z" fill="#DCCBB7"/>
<path d="M254.448 22.1072H253.895C253.862 21.9481 253.805 21.8084 253.723 21.688C253.643 21.5675 253.544 21.4664 253.428 21.3846C253.314 21.3014 253.187 21.2389 253.047 21.1973C252.907 21.1557 252.762 21.1349 252.61 21.1349C252.333 21.1349 252.083 21.2047 251.858 21.3445C251.635 21.4843 251.458 21.6902 251.325 21.9623C251.194 22.2344 251.129 22.5682 251.129 22.9637C251.129 23.3592 251.194 23.693 251.325 23.965C251.458 24.2371 251.635 24.4431 251.858 24.5828C252.083 24.7226 252.333 24.7925 252.61 24.7925C252.762 24.7925 252.907 24.7717 253.047 24.73C253.187 24.6884 253.314 24.6267 253.428 24.5449C253.544 24.4616 253.643 24.3598 253.723 24.2394C253.805 24.1174 253.862 23.9777 253.895 23.8201H254.448C254.406 24.0535 254.33 24.2624 254.22 24.4468C254.11 24.6311 253.973 24.788 253.81 24.9174C253.646 25.0452 253.463 25.1426 253.259 25.2095C253.057 25.2764 252.84 25.3099 252.61 25.3099C252.22 25.3099 251.874 25.2147 251.571 25.0244C251.267 24.8341 251.029 24.5635 250.855 24.2126C250.681 23.8617 250.594 23.4454 250.594 22.9637C250.594 22.4819 250.681 22.0656 250.855 21.7147C251.029 21.3638 251.267 21.0932 251.571 20.9029C251.874 20.7126 252.22 20.6174 252.61 20.6174C252.84 20.6174 253.057 20.6509 253.259 20.7178C253.463 20.7847 253.646 20.8828 253.81 21.0122C253.973 21.1401 254.11 21.2962 254.22 21.4805C254.33 21.6634 254.406 21.8723 254.448 22.1072Z" fill="#DCCBB7"/>
<path d="M245.137 25.2483V20.6797H247.894V21.1705H245.69V22.7141H247.751V23.2049H245.69V24.7575H247.93V25.2483H245.137Z" fill="#DCCBB7"/>
<path d="M303.059 34.7173V30.1487H303.612V34.2265H305.736V34.7173H303.059Z" fill="#DCCBB7"/>
<path d="M297.117 34.7173H296.537L298.215 30.1487H298.786L300.463 34.7173H299.883L298.518 30.8714H298.482L297.117 34.7173ZM297.331 32.9327H299.669V33.4234H297.331V32.9327Z" fill="#DCCBB7"/>
<path d="M293.941 30.1487V34.7173H293.406L290.916 31.1302H290.872V34.7173H290.318V30.1487H290.854L293.352 33.7447H293.397V30.1487H293.941Z" fill="#DCCBB7"/>
<path d="M287.501 32.4324C287.501 32.9141 287.414 33.3305 287.24 33.6814C287.066 34.0322 286.828 34.3028 286.524 34.4932C286.221 34.6835 285.874 34.7786 285.485 34.7786C285.095 34.7786 284.749 34.6835 284.446 34.4932C284.142 34.3028 283.904 34.0322 283.73 33.6814C283.556 33.3305 283.469 32.9141 283.469 32.4324C283.469 31.9507 283.556 31.5344 283.73 31.1835C283.904 30.8326 284.142 30.562 284.446 30.3717C284.749 30.1813 285.095 30.0862 285.485 30.0862C285.874 30.0862 286.221 30.1813 286.524 30.3717C286.828 30.562 287.066 30.8326 287.24 31.1835C287.414 31.5344 287.501 31.9507 287.501 32.4324ZM286.966 32.4324C286.966 32.0369 286.9 31.7031 286.767 31.431C286.636 31.1589 286.459 30.953 286.234 30.8132C286.011 30.6735 285.761 30.6036 285.485 30.6036C285.208 30.6036 284.958 30.6735 284.733 30.8132C284.51 30.953 284.333 31.1589 284.2 31.431C284.069 31.7031 284.004 32.0369 284.004 32.4324C284.004 32.8279 284.069 33.1617 284.2 33.4338C284.333 33.7059 284.51 33.9118 284.733 34.0516C284.958 34.1913 285.208 34.2612 285.485 34.2612C285.761 34.2612 286.011 34.1913 286.234 34.0516C286.459 33.9118 286.636 33.7059 286.767 33.4338C286.9 33.1617 286.966 32.8279 286.966 32.4324Z" fill="#DCCBB7"/>
<path d="M280.655 30.1487V34.7173H280.102V30.1487H280.655Z" fill="#DCCBB7"/>
<path d="M277.325 31.576H276.771C276.739 31.4169 276.682 31.2771 276.6 31.1567C276.519 31.0363 276.421 30.9352 276.305 30.8534C276.191 30.7701 276.064 30.7077 275.924 30.666C275.784 30.6244 275.639 30.6036 275.487 30.6036C275.21 30.6036 274.96 30.6735 274.735 30.8132C274.512 30.953 274.335 31.1589 274.202 31.431C274.071 31.7031 274.006 32.0369 274.006 32.4324C274.006 32.8279 274.071 33.1617 274.202 33.4338C274.335 33.7059 274.512 33.9118 274.735 34.0516C274.96 34.1913 275.21 34.2612 275.487 34.2612C275.639 34.2612 275.784 34.2404 275.924 34.1988C276.064 34.1571 276.191 34.0954 276.305 34.0137C276.421 33.9304 276.519 33.8285 276.6 33.7081C276.682 33.5862 276.739 33.4464 276.771 33.2888H277.325C277.283 33.5223 277.207 33.7312 277.097 33.9155C276.987 34.0999 276.85 34.2568 276.687 34.3861C276.523 34.514 276.34 34.6114 276.136 34.6783C275.934 34.7452 275.717 34.7786 275.487 34.7786C275.097 34.7786 274.751 34.6835 274.448 34.4932C274.144 34.3028 273.906 34.0322 273.732 33.6814C273.558 33.3305 273.471 32.9141 273.471 32.4324C273.471 31.9507 273.558 31.5344 273.732 31.1835C273.906 30.8326 274.144 30.562 274.448 30.3717C274.751 30.1813 275.097 30.0862 275.487 30.0862C275.717 30.0862 275.934 30.1196 276.136 30.1865C276.34 30.2535 276.523 30.3516 276.687 30.4809C276.85 30.6088 276.987 30.7649 277.097 30.9493C277.207 31.1322 277.283 31.3411 277.325 31.576Z" fill="#DCCBB7"/>
<path d="M270.657 30.1484V34.717H270.104V30.1484H270.657Z" fill="#DCCBB7"/>
<path d="M264.201 34.717V30.1484H265.745C266.102 30.1484 266.395 30.2094 266.624 30.3314C266.853 30.4518 267.022 30.6176 267.132 30.8288C267.242 31.04 267.297 31.2802 267.297 31.5494C267.297 31.8185 267.242 32.0572 267.132 32.2654C267.022 32.4736 266.854 32.6372 266.626 32.7562C266.398 32.8737 266.108 32.9324 265.754 32.9324H264.505V32.4327H265.736C265.98 32.4327 266.176 32.397 266.325 32.3257C266.475 32.2543 266.584 32.1532 266.651 32.0223C266.719 31.8899 266.753 31.7323 266.753 31.5494C266.753 31.3664 266.719 31.2066 266.651 31.0697C266.582 30.9329 266.473 30.8273 266.323 30.753C266.172 30.6771 265.974 30.6392 265.727 30.6392H264.754V34.717H264.201ZM266.352 32.6647L267.476 34.717H266.833L265.727 32.6647H266.352Z" fill="#DCCBB7"/>
<path d="M258.037 30.6392V30.1484H261.464V30.6392H260.027V34.717H259.474V30.6392H258.037Z" fill="#DCCBB7"/>
<path d="M254.746 30.1487H255.299V33.1729C255.299 33.4851 255.225 33.7639 255.078 34.0093C254.932 34.2531 254.726 34.4456 254.46 34.5869C254.194 34.7266 253.882 34.7965 253.523 34.7965C253.165 34.7965 252.853 34.7266 252.587 34.5869C252.32 34.4456 252.114 34.2531 251.967 34.0093C251.821 33.7639 251.748 33.4851 251.748 33.1729V30.1487H252.301V33.1283C252.301 33.3513 252.35 33.5498 252.448 33.7238C252.546 33.8963 252.686 34.0323 252.868 34.1319C253.051 34.23 253.269 34.2791 253.523 34.2791C253.778 34.2791 253.996 34.23 254.179 34.1319C254.362 34.0323 254.502 33.8963 254.598 33.7238C254.696 33.5498 254.746 33.3513 254.746 33.1283V30.1487Z" fill="#DCCBB7"/>
<path d="M248.759 30.1484V34.717H248.224L245.735 31.13H245.69V34.717H245.137V30.1484H245.672L248.171 33.7444H248.215V30.1484H248.759Z" fill="#DCCBB7"/>
<path d="M224.945 9.72941C227.745 9.72944 230.558 10.4327 233.613 11.8026L234.547 19.0523H234.256C233.201 16.8095 231.82 14.8936 230.134 13.2448C228.449 11.608 226.617 10.7844 224.617 10.7844C223.053 10.7845 221.683 11.3174 220.519 12.3721C219.367 13.4269 218.786 14.9669 218.786 16.9673C218.786 18.6041 219.271 19.8773 220.204 20.7988C221.138 21.7202 223.065 23.066 225.987 24.8481C226.205 25.0178 226.376 25.1388 226.497 25.2116C227.552 25.8419 228.255 26.2425 228.594 26.4607C228.933 26.6789 229.528 27.0667 230.376 27.5879C231.225 28.1214 231.795 28.5224 232.086 28.8134C232.377 29.1043 232.838 29.4921 233.432 29.9891C234.038 30.4982 234.439 30.9468 234.681 31.359C234.923 31.7711 235.189 32.2442 235.48 32.826C235.771 33.408 235.966 33.978 236.063 34.5843C236.16 35.1904 236.208 35.833 236.208 36.5604C236.208 39.5671 235.226 41.9076 233.226 43.5686C231.226 45.2295 228.873 46.0537 226.146 46.0538L226.097 46.1024L226.121 46.126C222.702 46.126 219.016 44.999 215.076 42.7078L214.542 35.1171H214.833C215.84 37.6994 217.294 39.9549 219.161 41.9311C221.04 43.9072 223.235 44.8898 225.732 44.8899C227.684 44.8899 229.273 44.2834 230.498 43.0831C231.722 41.8829 232.352 40.319 232.352 38.4157C232.352 37.567 232.207 36.7781 231.892 36.0264C231.576 35.2749 231.261 34.6571 230.934 34.1722C230.594 33.6872 230.025 33.1409 229.2 32.4862C228.388 31.8316 227.781 31.4079 227.393 31.1897C227.005 30.9714 226.29 30.534 225.223 29.9157C224.908 29.7219 224.666 29.5763 224.496 29.4551C221.247 27.5517 218.859 25.8426 217.367 24.3271C215.876 22.8116 215.124 20.8832 215.124 18.5432C215.124 15.8518 216.058 13.7058 217.937 12.1176C219.816 10.5293 222.144 9.72941 224.945 9.72941ZM186.839 9.65601C191.676 9.65614 195.604 11.3657 198.732 14.7603C201.86 18.1551 203.424 22.5202 203.424 27.8306C203.424 33.1411 201.86 37.5305 198.732 40.9495C195.604 44.3685 191.663 46.0775 186.862 46.0775H186.839C182.001 46.0775 178.023 44.3685 174.895 40.9495C171.767 37.5183 170.203 33.1411 170.203 27.8306C170.203 22.5202 171.767 18.1551 174.895 14.7603C178.023 11.3656 182.001 9.65601 186.839 9.65601ZM163.972 10.3108H163.984V10.602C163.05 10.9173 162.274 11.2326 161.668 11.5599C161.062 11.8993 160.565 12.348 160.128 12.9298C159.692 13.5118 159.376 14.0089 159.182 14.4453C158.988 14.8817 158.698 15.6213 158.298 16.6879L147.458 45.6287H146.803L134.328 13.7787C134.012 12.8937 133.6 12.2385 133.103 11.8263C132.594 11.4141 131.515 10.9778 129.854 10.5535V10.2622H143.263V10.5535C141.554 11.1112 140.426 11.5602 139.869 11.8997C139.311 12.2391 139.02 12.6872 139.02 13.2933C139.02 13.8025 139.262 14.6884 139.772 15.9857L147.652 36.5841C147.98 37.4449 149.204 37.4449 149.52 36.5841L156.878 16.6393C157.387 15.2695 157.631 14.2514 157.606 13.6331C157.606 12.845 157.291 12.2148 156.672 11.7541C156.042 11.2935 154.988 10.8935 153.497 10.5298V10.2385L163.972 10.3108ZM71.3663 10.5653C69.2931 11.22 68.0193 11.8382 67.51 12.4444C67.0008 13.0506 66.7593 14.4211 66.7593 16.5671V42.259C66.7597 42.8165 67.3895 43.2891 68.6135 43.7012C69.838 44.1134 71.572 44.3074 73.8149 44.3074H75.9852C77.6947 44.3074 79.2109 43.6291 80.5567 42.259C81.9025 40.889 82.969 39.2756 83.7571 37.3963H84.0235L82.8477 45.4831H57.8105V45.193C59.9075 44.5385 61.2053 43.9201 61.6906 43.314C62.1755 42.7078 62.4187 41.3372 62.4187 39.1913V16.5671C62.4187 14.4211 62.1755 13.0506 61.6906 12.4444C61.2053 11.8383 59.9075 11.2199 57.8105 10.5653V10.2752H71.3663V10.5653ZM122.773 10.5049C121.427 10.9414 120.36 11.5354 119.572 12.3354C118.772 13.1356 117.959 14.2392 117.111 15.6578L108.637 29.5522V39.1794C108.637 41.3251 108.903 42.6948 109.412 43.301C109.922 43.9072 111.219 44.5253 113.292 45.18V45.4713H99.7365V45.18C101.834 44.5253 103.132 43.9072 103.641 43.301C104.15 42.6946 104.393 41.3247 104.393 39.1794V30.0128L94.3291 13.6935C94.014 13.1359 93.7478 12.7475 93.5418 12.5415C93.3356 12.3353 92.9104 12.0332 92.3163 11.6937C91.7101 11.3542 90.8736 10.9654 89.7825 10.5653V10.2741H103.313V10.5653C101.774 11.1715 100.743 11.5957 100.234 11.8867C99.7247 12.1776 99.4584 12.5417 99.4583 12.9902C99.4583 13.4388 99.7972 14.1913 100.44 15.331L107.314 26.7638C107.702 27.4063 108.636 27.4062 109.024 26.7638L115.68 15.6696C116.238 14.7604 116.505 13.9598 116.481 13.3051C116.481 12.081 115.377 11.1599 113.183 10.5416V10.2504L122.773 10.2255V10.5049ZM189.081 10.9655C186.389 10.7352 183.988 11.487 181.83 13.2329C179.672 14.9788 178.023 17.1982 176.872 19.8776C175.72 22.5569 175.005 25.4424 174.738 28.5339C174.326 33.1654 175.065 36.9484 176.957 39.8946C178.848 42.8407 181.431 44.4652 184.717 44.7561L184.692 44.7076C187.287 44.9379 189.638 44.198 191.772 42.5006C193.906 40.8032 195.568 38.6336 196.744 35.9542C197.92 33.2747 198.659 30.3883 198.926 27.2966C199.326 22.811 198.611 19.0527 196.804 15.9976C194.998 12.9423 192.415 11.2565 189.081 10.9655ZM122.786 10.2255H122.773V10.2137L122.786 10.2255Z" fill="#DCCBB7"/>
<path d="M20.1303 49.4603L19.2446 49.4485L19.8876 39.9669L20.4085 39.9313L20.1303 49.4603ZM21.2812 39.9669C21.4509 39.9669 21.7418 39.8706 21.7903 40.0888L22.4817 48.7333L21.621 49.169L21.2812 39.9669ZM19.0268 40.1243L17.838 49.1335L17.0862 48.6966L18.5295 40.3067C18.6023 40.0886 18.8689 40.1367 19.0386 40.1125L19.0268 40.1243ZM15.9105 47.8844C15.765 47.5814 15.3168 47.4844 15.3528 47.1088L17.0625 40.9496C17.1474 40.6829 17.4505 40.6222 17.6687 40.5979L15.9105 47.8844ZM22.6878 40.2581C22.9302 40.2581 23.2582 40.2705 23.3188 40.5494L24.6153 47.0354C24.7244 47.3021 23.804 47.9447 23.7427 47.8725H23.7546L22.6878 40.2581ZM15.9827 41.531C15.4856 42.8283 15.1714 44.4656 14.6258 45.7022C14.5773 45.8113 14.6493 45.8712 14.4553 45.8348C14.1403 45.0109 14.2014 44.8654 14.4802 44.0292C14.7711 43.1443 15.1222 41.8346 15.9827 41.5191V41.531ZM24.4946 41.0348C24.5097 41.0424 25.1004 41.338 25.173 41.4102C25.3912 41.6284 26.1913 43.9808 26.2398 44.3809C26.2882 44.8535 25.95 45.1687 25.8408 45.617V45.6051L25.6336 45.4844L24.4946 41.0348ZM13.025 38.5129C13.1705 38.7674 13.3886 39.1186 13.2677 39.4577L10.0306 44.7444L10.0425 44.7562C10.0425 44.7562 9.54557 44.8774 9.63044 44.6591L13.025 38.5129ZM14.0551 42.477C14.2127 42.5618 14.3463 42.5743 14.2978 42.8168C14.2728 42.9401 13.7648 44.3196 13.7283 44.3927C13.5588 44.6349 13.3406 44.32 13.1588 44.3193H13.1458C13.1013 44.2395 13.8233 42.6866 13.9095 42.5622C13.9579 42.5017 13.9826 42.453 14.0551 42.477ZM13.6194 40.5127C13.6436 40.9613 13.7033 41.2771 13.5578 41.75C13.4835 41.971 12.4789 43.8472 12.3335 44.0411C12.1881 44.235 11.9817 44.3557 11.7877 44.3679H11.7759L13.6194 40.5127ZM12.7586 38.1127L8.27238 44.2352L7.82364 44.2471L12.4306 37.3609L12.7586 38.1127ZM32.521 44.0647H31.9029L28.12 38.3542C27.9263 37.9663 28.2896 37.4812 28.5321 37.1418L32.521 44.0647ZM26.4707 41.9311C26.6647 41.8584 26.8341 41.7259 26.9917 41.8956C27.0769 41.9936 27.6222 43.3138 27.695 43.5319C27.804 43.8591 27.1141 44.065 27.0165 43.9321C26.8953 43.7503 26.3861 42.0281 26.4588 41.9311H26.4707ZM29.5018 43.7261L29.4899 43.738C29.2232 43.738 28.9564 43.6043 28.7866 43.3981C28.6165 43.1912 27.5128 41.1553 27.4522 40.9129C27.319 40.404 27.4529 40.0403 27.5256 39.5193L29.5018 43.7261ZM35.4064 43.204H35.3946L34.6664 43.2407L28.9441 36.5972C28.8229 36.3668 29.3446 35.8818 29.4781 35.6393L35.4064 43.204ZM11.6906 36.487C11.7997 36.4507 12.2969 36.9724 12.0423 37.1785L6.67159 43.1436L6.52596 42.8523L11.6906 36.487ZM37.7579 41.2278L37.4548 41.6399L30.0109 35.3362C29.7321 35.0332 30.2656 34.6936 30.5082 34.4269H30.52L37.7579 41.2278ZM10.7339 35.8808C11.0123 35.7 11.1215 36.0996 11.3638 36.1117L11.3757 36.0999L11.2786 36.3177C9.70251 37.7726 8.21164 39.2884 6.70829 40.7069C6.55068 40.8524 6.04098 41.3854 5.91974 41.4339C5.73793 41.5186 5.70216 41.3005 5.69004 41.1308L10.7339 35.8808ZM9.70267 35.2628C9.9694 35.093 10.1638 35.4572 10.4427 35.4451H10.4308L5.51954 39.4341L5.58111 38.8764L9.70267 35.2628ZM31.781 33.3719C32.2417 33.2507 38.292 38.0641 39.2983 38.5733C39.5646 38.755 39.4078 38.9851 39.2261 39.2032L31.1629 34.087C30.8356 33.9294 31.6358 33.4083 31.7692 33.3719H31.781ZM7.99295 34.9715C8.24756 34.8381 8.76981 34.8148 8.9153 35.0331L8.92714 35.0449L5.98013 36.9488L6.12576 36.4385L7.99295 34.9715ZM32.5577 32.7657C32.9575 32.6926 33.309 32.1712 33.6967 32.2921L40.062 35.6878C40.1345 35.7975 40.11 36.2808 40.0253 36.4385L32.5577 32.7657ZM7.46014 34.6329L7.39976 34.7169C7.1694 34.8382 6.27125 35.6023 6.12576 35.5659C6.02908 35.5406 5.95689 35.1185 6.00499 35.0331L7.36306 34.2812L7.46014 34.6329ZM8.23567 32.4496C8.11443 32.7042 7.92054 33.1418 7.72655 33.3115C7.56732 33.4578 5.96798 34.3663 5.77411 34.4269C5.51975 34.5111 5.31365 34.1842 5.04712 34.1841L8.23567 32.4377V32.4496ZM8.67258 31.3958L4.33198 33.3601C4.00464 33.4692 3.97983 33.0325 3.79799 32.8628L8.95911 30.8073L8.67258 31.3958ZM36.3395 31.2987L39.4806 32.5833V32.5952C39.4806 32.5952 39.6859 33.0922 39.5647 33.2014L34.9092 31.6989C34.994 31.505 36.1083 31.2384 36.3395 31.2987ZM9.20538 29.8802L3.36227 31.8078C3.36227 31.6502 3.0952 31.1284 3.32556 31.0678L9.35102 29.3711L9.20538 29.8802ZM40.0135 30.4616H40.0016L39.7589 31.2371C39.6377 31.3462 37.8578 30.8621 37.662 30.7647C37.371 30.6192 37.5165 30.4252 37.6135 30.1585L40.0135 30.4616ZM8.95911 30.8073L8.96266 30.8014H8.97568L8.95911 30.8073ZM9.48481 28.5459C7.29052 29.1278 5.18083 29.4552 3.15625 29.9643L3.22847 29.1284L9.50731 28.1468L9.48481 28.5459ZM41.7599 29.0313H41.7717C41.2746 29.1525 40.8377 29.6982 40.3769 29.6861C40.0718 29.6856 37.2245 29.1034 37.0428 29.0064C36.956 28.9553 36.3278 28.1822 36.3762 28.1338L41.7599 29.0313ZM9.48481 27.2849L9.26577 27.4068C7.39876 27.3827 5.28892 28.0003 3.60381 27.9396C3.53144 27.94 3.49567 28.0244 3.51974 27.8556C3.55612 27.6495 3.68882 27.4306 3.74944 27.2245L3.84653 27.1523L9.45995 26.9095V26.8977L9.48481 27.2849ZM44.4511 26.4726C44.1117 26.8485 43.9174 27.4915 43.2991 27.5158L35.8185 26.9818L35.4301 26.3637L44.4511 26.4726ZM9.32734 26.0488V26.0606L9.32142 26.0476L9.32734 26.0488ZM9.12132 25.5752L9.32142 26.0476L4.39236 25.9517C4.61047 25.7093 4.70747 25.2607 5.02226 25.2602L9.12132 25.5752ZM45.5546 24.7511C41.9174 25.0178 38.474 25.1029 35.2004 25.2969L35.0311 24.7274L45.93 23.6239L45.943 23.6121L45.5546 24.7511ZM6.65975 23.6476C6.8421 23.6477 8.30694 23.9391 8.45353 24.0241C8.5384 24.0726 8.90251 24.6058 8.84189 24.6907L8.83005 24.6789L5.88422 24.1567C6.15073 24.0593 6.40534 23.6597 6.65975 23.6476ZM46.2935 21.9142L34.9459 23.7328V23.2355C38.5223 22.3384 42.3049 21.6843 46.2935 20.7266V21.9142ZM7.16888 22.4837C7.49618 22.4111 8.00523 22.8351 8.39315 22.7868L8.22383 23.1988L6.90247 23.0414C6.98716 22.9076 7.02353 22.52 7.16888 22.4837ZM9.90869 21.8775C9.71478 22.1562 9.20618 22.3139 8.97568 22.2777C8.47875 22.205 7.83604 21.6119 7.30267 21.5389L7.25413 21.1256L9.90869 21.8775ZM45.9063 19.1862L35.3461 22.1688C35.0066 22.29 35.1396 21.659 35.2608 21.5862L45.5061 18.2284L45.9063 19.1862ZM11.4728 20.7621V20.774C11.497 20.9558 11.4363 20.9076 11.3757 20.9682C11.2181 21.1137 10.8667 21.4169 10.7091 21.3684L7.15704 19.4289L7.18072 18.9198L11.4728 20.7621ZM43.2873 16.4097C43.881 16.2038 44.0752 16.7487 44.4144 16.9792L35.5272 20.4472L35.9393 19.6953L43.2873 16.4097ZM7.89586 16.9307C8.00487 16.9307 8.41682 17.2456 8.55062 17.3309C9.81154 18.0947 11.0609 18.9919 12.4188 19.8043L12.4768 19.9689C12.2426 20.0766 12.0857 20.4817 11.8363 20.4105L7.62946 17.2953C7.66579 17.1258 7.73858 16.9069 7.89586 16.9307ZM12.4792 19.9748L12.4768 19.9689C12.4816 19.9666 12.4861 19.9637 12.491 19.9617L12.4792 19.9748ZM8.9153 15.0398L13.2914 18.6771C13.4733 18.8953 13.1092 19.1616 12.9516 19.4041L8.68442 15.3915L8.9153 15.028V15.0398ZM14.1037 17.5618C14.1762 17.7315 13.7887 18.1797 13.6916 18.3858L10.1277 13.8025L10.3941 13.5479H10.5634L14.1037 17.5618ZM40.4385 15.4282C40.8869 15.2587 41.3109 15.6097 41.7836 15.5371H41.7954L36.5218 18.3621C36.4248 18.3015 37.1163 17.3429 37.2618 17.2338C37.5069 17.0263 40.1235 15.5493 40.4385 15.4282ZM14.7703 16.1066C14.843 16.3855 14.5883 16.7853 14.4186 17.0763L11.9215 12.6872C11.8856 12.5056 12.2247 12.4817 12.3217 12.4575L14.7703 16.1066ZM39.6014 14.1909C39.856 14.0819 40.0258 14.6764 39.9531 14.7734L37.8799 15.9728L37.6857 15.9373L37.5519 15.6211L39.6014 14.1909ZM39.6133 13.0637C38.7645 13.5004 37.1882 15.1369 36.4851 15.44C36.2903 15.5248 35.2633 15.6696 35.1886 15.5371L39.6985 12.4811L39.6133 13.0637ZM40.1958 10.0681L34.0247 15.4282C33.6488 15.6706 33.3329 15.3187 32.9449 15.3915L40.1709 9.41454L40.1958 10.0681ZM39.2379 7.31647C39.5288 7.13482 39.6136 7.36524 39.65 7.55919L32.4358 15.0031C32.0662 15.2534 31.8962 14.8839 31.5679 14.906L31.6721 14.6633C33.7694 12.6751 35.8549 10.5661 38.0492 8.45667C38.2917 8.22631 39.0561 7.43771 39.2379 7.31647ZM13.9225 12.2029C14.1527 12.1061 14.3225 12.2022 14.4316 12.3355C14.5771 12.5174 15.2555 13.7062 15.3161 13.9245C15.4009 14.3002 15.3048 14.6037 15.232 15.028L13.9225 12.2029ZM31.5631 14.9178L31.5513 14.906C31.5568 14.9054 31.5624 14.9064 31.5679 14.906L31.5631 14.9178ZM37.7105 5.78909C37.8319 5.72899 38.1822 5.89768 38.1226 6.01879L30.9936 14.5662L30.5319 14.2157L30.6171 13.9363L37.7105 5.78909ZM35.976 5.27996L30.0961 13.851C29.9747 13.6813 29.5144 13.4271 29.6356 13.1726L35.4301 5.24326L35.976 5.27996ZM19.1476 13.5243C18.9415 13.5727 18.6625 13.6332 18.6017 13.4153L17.6202 8.57744C17.5354 8.43208 18.2858 7.65693 18.3235 7.6918L19.1476 13.5243ZM20.4085 13.4639C20.251 13.5124 19.9967 13.645 19.948 13.4639L19.4625 6.50423L20.1303 6.01879L20.4085 13.4639ZM21.7062 13.1477L21.2089 13.3064L21.4516 5.2918L22.2639 4.98869L21.7062 13.1477ZM17.6202 13.2697C17.6202 13.2697 17.1353 13.1487 17.0743 13.1122C16.9289 13.0031 16.3101 11.3176 16.2858 11.0509C16.2615 10.8447 16.4807 10.3233 16.6019 10.093C16.6503 9.9961 16.6017 9.95975 16.7712 9.93551H16.7831L17.6202 13.2697ZM15.6926 11.5351L16.0679 12.9547H16.0798C15.9345 13.0517 15.7886 13.1963 15.6796 13.0874C15.6178 13.0235 15.2437 12.1291 15.1953 11.9839C15.1351 11.7659 15.4252 11.6689 15.5706 11.5114L15.6926 11.5351ZM23.0513 12.5297C22.9786 12.7477 22.7128 12.7726 22.5552 12.821L23.5 4.91529C23.5973 4.613 24.0939 4.84275 24.3122 4.73413L23.0513 12.5297ZM29.2839 12.821C29.0778 12.5906 28.7617 12.2872 28.9678 11.8749L32.7992 5.59491L33.3534 5.39363L29.2839 12.821ZM25.6217 5.06092C25.7794 5.26703 26.2762 5.1832 26.2398 5.52268L24.555 11.5718C24.4701 11.8385 24.1551 11.9724 23.9369 12.0573H23.9251L25.6217 5.06092ZM30.5319 6.68539L28.4468 11.026C28.3983 10.6019 28.3141 10.3226 28.4717 9.81356C28.5699 9.52064 29.707 7.43959 29.9138 7.14715C30.0835 6.91692 30.2654 6.74636 30.5319 6.67355V6.68539ZM27.2592 6.3219C27.3199 6.64925 27.6472 6.8681 27.5623 7.25608C27.5015 7.57171 26.5439 9.94789 26.3499 10.1782C26.2772 10.2631 25.7306 10.7723 25.6821 10.7359C26.1792 9.40229 26.4953 7.80179 27.0651 6.49239C27.1136 6.37115 27.0289 6.34643 27.2592 6.31005V6.3219ZM28.0466 9.2322C27.8162 9.3049 27.4645 9.35284 27.5493 9.04987C27.6827 8.56491 28.0343 7.89786 28.1555 7.38869L28.326 7.25608H28.8423L28.0466 9.2322ZM28.847 7.25608H28.8423L28.847 7.24424V7.25608ZM33.3534 5.39363L33.3569 5.38889H33.3699L33.3534 5.39363Z" fill="#DCCBB7"/>
</svg>
