<svg width="148" height="110" viewBox="0 0 148 110" fill="none" xmlns="http://www.w3.org/2000/svg">
<path d="M21.7 73.68L20.72 80.37H0V80.13C1.73 79.59 2.81002 79.07 3.21002 78.58C3.61002 78.08 3.81 76.95 3.81 75.17V56.45C3.81 54.68 3.61002 53.54 3.21002 53.04C2.81002 52.54 1.74 52.02 0 51.49V51.25H11.21V51.49C9.50002 52.03 8.44002 52.55 8.02002 53.04C7.60002 53.54 7.40002 54.67 7.40002 56.45V77.7C7.40002 78.16 7.91999 78.56 8.92999 78.9C9.93999 79.24 11.38 79.4 13.23 79.4H15.02C16.43 79.4 17.69 78.84 18.8 77.71C19.92 76.57 20.79 75.24 21.45 73.69H21.67L21.7 73.68Z" fill="#B8A892" fill-opacity="0.7"/>
<path d="M53.7609 51.1907V51.4307C52.6409 51.7907 51.7709 52.2907 51.1109 52.9407C50.4509 53.6007 49.7809 54.5107 49.0809 55.6907L42.0709 67.1807V75.1507C42.0709 76.9207 42.2909 78.0607 42.7109 78.5607C43.1309 79.0607 44.2009 79.5807 45.9209 80.1107V80.3507H34.7109V80.1107C36.4409 79.5707 37.5209 79.0507 37.9409 78.5607C38.3609 78.0607 38.5609 76.9307 38.5609 75.1507V67.5607L30.2309 54.0507C29.9709 53.5907 29.7509 53.2707 29.5709 53.0907C29.3909 52.9107 29.0509 52.6707 28.5509 52.3907C28.0509 52.1107 27.3509 51.7907 26.4609 51.4507V51.2107H37.6609V51.4507C36.3909 51.9507 35.5309 52.3107 35.1109 52.5507C34.6909 52.7907 34.4709 53.0907 34.4709 53.4707C34.4709 53.8507 34.7509 54.4707 35.2909 55.4007L40.9709 64.8607C41.2909 65.4007 42.0709 65.3907 42.3909 64.8607L47.9009 55.6807C48.3609 54.9207 48.5809 54.2707 48.5609 53.7307C48.5609 52.7107 47.6409 51.9607 45.8309 51.4407V51.2007L53.7809 51.1807L53.7609 51.1907Z" fill="#B8A892" fill-opacity="0.7"/>
<path d="M87.8608 51.2702V51.5103C87.0808 51.7703 86.4509 52.0302 85.9509 52.3102C85.4509 52.5902 85.0308 52.9703 84.6808 53.4503C84.3208 53.9303 84.0609 54.3502 83.9009 54.7102C83.7409 55.0702 83.5009 55.6902 83.1609 56.5602L74.2009 80.5002H73.6609L63.3409 54.1502C63.0809 53.4102 62.7409 52.8803 62.3209 52.5403C61.9009 52.2003 61.0109 51.8403 59.6309 51.4803V51.2402H70.7308V51.4803C69.3208 51.9403 68.3808 52.3203 67.9208 52.6003C67.4608 52.8803 67.2209 53.2603 67.2209 53.7603C67.2209 54.1803 67.4209 54.9202 67.8409 55.9902L74.3608 73.0403C74.6308 73.7503 75.6409 73.7503 75.9109 73.0403L82.0009 56.5403C82.4209 55.4003 82.6208 54.5702 82.6008 54.0502C82.6008 53.3902 82.3409 52.8802 81.8209 52.5002C81.3009 52.1202 80.4309 51.7803 79.1909 51.4803V51.2402L87.8608 51.3002V51.2702Z" fill="#B8A892" fill-opacity="0.7"/>
<path d="M139.271 80.9103C136.441 80.9103 133.391 79.9703 130.131 78.0803L129.691 71.8003H129.931C130.771 73.9303 131.961 75.8003 133.521 77.4403C135.071 79.0703 136.891 79.8903 138.961 79.8903C140.571 79.8903 141.891 79.3903 142.901 78.4003C143.911 77.4103 144.431 76.1103 144.431 74.5403C144.431 73.8403 144.311 73.1903 144.051 72.5703C143.791 71.9503 143.531 71.4303 143.251 71.0403C142.971 70.6403 142.491 70.1803 141.821 69.6503C141.141 69.1103 140.651 68.7503 140.331 68.5703C140.011 68.3903 139.411 68.0303 138.541 67.5103C138.281 67.3503 138.081 67.2303 137.941 67.1303C135.251 65.5603 133.281 64.1403 132.041 62.8903C130.801 61.6403 130.191 60.0403 130.191 58.1103C130.191 55.8803 130.971 54.1103 132.521 52.7903C134.071 51.4703 136.011 50.8203 138.321 50.8203C140.631 50.8203 142.961 51.4003 145.491 52.5303L146.271 58.5303H146.031C145.151 56.6803 144.021 55.0803 142.621 53.7303C141.231 52.3803 139.711 51.7003 138.061 51.7003C136.771 51.7003 135.631 52.1403 134.671 53.0103C133.711 53.8903 133.241 55.1603 133.241 56.8103C133.241 58.1703 133.641 59.2203 134.411 59.9803C135.181 60.7403 136.781 61.8503 139.191 63.3303C139.371 63.4703 139.511 63.5703 139.611 63.6303C140.491 64.1503 141.061 64.4903 141.341 64.6703C141.621 64.8503 142.121 65.1703 142.811 65.6103C143.511 66.0503 143.991 66.3903 144.221 66.6303C144.451 66.8703 144.841 67.1903 145.341 67.6103C145.841 68.0303 146.181 68.4103 146.381 68.7503C146.581 69.0903 146.801 69.4903 147.041 69.9703C147.281 70.4503 147.441 70.9303 147.521 71.4203C147.601 71.9203 147.641 72.4603 147.641 73.0503C147.641 75.5403 146.821 77.4703 145.171 78.8503C143.521 80.2203 141.561 80.9003 139.311 80.9003L139.271 80.9403V80.9103Z" fill="#B8A892" fill-opacity="0.7"/>
<path d="M96.8802 54.9604C99.4702 52.1504 102.76 50.7305 106.76 50.7305C110.76 50.7305 114.01 52.1504 116.6 54.9604C119.19 57.7704 120.49 61.3805 120.49 65.7805C120.49 70.1805 119.19 73.8005 116.6 76.6405C114.01 79.4705 110.75 80.8805 106.78 80.8805H106.76C102.76 80.8805 99.4702 79.4705 96.8802 76.6405C94.2902 73.8105 92.9902 70.1805 92.9902 65.7805C92.9902 61.3805 94.2902 57.7704 96.8802 54.9604ZM98.5903 75.7505C100.16 78.1905 102.3 79.5404 105.01 79.7704L104.99 79.7305C107.13 79.9205 109.09 79.3105 110.85 77.9005C112.61 76.5005 113.99 74.7005 114.97 72.4805C115.95 70.2705 116.55 67.8805 116.78 65.3205C117.11 61.6105 116.52 58.5005 115.02 55.9705C113.52 53.4405 111.38 52.0505 108.63 51.8105C106.41 51.6105 104.41 52.2405 102.63 53.6805C100.84 55.1205 99.4803 56.9605 98.5303 59.1805C97.5803 61.4005 96.9903 63.7805 96.7603 66.3405C96.4203 70.1705 97.0303 73.3004 98.5903 75.7404V75.7505Z" fill="#B8A892" fill-opacity="0.7"/>
<path d="M70.2473 29.1299L70.0073 37.0099L69.2773 36.9999L69.8173 29.1599L70.2473 29.1299Z" fill="#B8A892" fill-opacity="0.7"/>
<path d="M91.6595 13.2305V14.2104L82.2695 15.7205V15.3105C85.2295 14.5705 88.3595 14.0305 91.6595 13.2305Z" fill="#B8A892" fill-opacity="0.7"/>
<path d="M61.2287 19.3701L61.2087 19.7001C59.3887 20.1801 57.6487 20.4601 55.9688 20.8801L56.0287 20.1901L61.2287 19.3701Z" fill="#B8A892" fill-opacity="0.7"/>
<path d="M71.7802 0.209961L71.3201 6.96997L70.9102 7.08997L71.1101 0.459961L71.7802 0.209961Z" fill="#B8A892" fill-opacity="0.7"/>
<path d="M91.3696 15.6201L91.0496 16.5601C88.0396 16.7801 85.1896 16.8501 82.4896 17.0101L82.3496 16.5401L91.3696 15.6201Z" fill="#B8A892" fill-opacity="0.7"/>
<path d="M61.0874 20.3906L60.9674 20.8106L56.1274 22.4106C56.1274 22.2806 55.8973 21.8506 56.0973 21.8006L61.0874 20.3906Z" fill="#B8A892" fill-opacity="0.7"/>
<path d="M69.1083 29.29L68.1183 36.75L67.4883 36.39L68.6883 29.45C68.7483 29.27 68.9683 29.31 69.1083 29.29Z" fill="#B8A892" fill-opacity="0.7"/>
<path d="M70.969 29.1603C71.109 29.1603 71.349 29.0803 71.389 29.2603L71.959 36.4203L71.239 36.7803L70.959 29.1603H70.969Z" fill="#B8A892" fill-opacity="0.7"/>
<path d="M73.4795 0L72.4295 6.45001C72.3695 6.63001 72.1495 6.65 72.0195 6.69L72.8095 0.149994C72.8895 -0.100006 73.2995 0.09 73.4795 0Z" fill="#B8A892" fill-opacity="0.7"/>
<path d="M61.1801 18.3398L61.2001 18.6599L61.0201 18.7698C59.4801 18.7498 57.7301 19.2598 56.3301 19.2098C56.2701 19.2098 56.2401 19.2799 56.2601 19.1399C56.2901 18.9699 56.4001 18.7798 56.4501 18.6098L56.5301 18.5498L61.1801 18.3499V18.3398Z" fill="#B8A892" fill-opacity="0.7"/>
<path d="M91.0079 11.1699L91.3379 11.9699L82.5978 14.4299C82.3078 14.5299 82.4279 14.0099 82.5279 13.9499L90.9979 11.1699H91.0079Z" fill="#B8A892" fill-opacity="0.7"/>
<path d="M70.239 7.23032C70.109 7.27032 69.8989 7.38032 69.8589 7.23032L69.459 1.47031L70.009 1.07031L70.239 7.23032Z" fill="#B8A892" fill-opacity="0.7"/>
<path d="M84.5591 0.879608C84.6591 0.829608 84.9492 0.96961 84.8992 1.06961L78.9991 8.13962L78.6191 7.84961L78.6891 7.6196L84.5591 0.879608Z" fill="#B8A892" fill-opacity="0.7"/>
<path d="M60.7291 8.52954L64.3491 11.5396C64.4991 11.7196 64.1991 11.9496 64.0691 12.1396L60.5391 8.81955L60.7291 8.51953V8.52954Z" fill="#B8A892" fill-opacity="0.7"/>
<path d="M63.0278 26.2798C63.1178 26.2498 63.5278 26.6798 63.3178 26.8498L58.8778 31.7898L58.7578 31.5498L63.0278 26.2898V26.2798Z" fill="#B8A892" fill-opacity="0.7"/>
<path d="M78.6196 24.5703L84.6096 30.2003L84.3596 30.5403L78.1997 25.3303C77.9697 25.0803 78.4096 24.7903 78.6096 24.5803L78.6196 24.5703Z" fill="#B8A892" fill-opacity="0.7"/>
<path d="M63.6997 12.6004C63.4997 12.6804 63.3697 13.0304 63.1597 12.9704L59.6797 10.3904C59.7097 10.2504 59.7697 10.0704 59.8997 10.0904C59.9897 10.0904 60.3297 10.3504 60.4397 10.4204C61.4897 11.0504 62.5197 11.7904 63.6397 12.4604L63.6897 12.6004H63.6997Z" fill="#B8A892" fill-opacity="0.7"/>
<path d="M62.7781 25.9495L62.6981 26.1295C61.3981 27.3395 60.1581 28.5895 58.9181 29.7595C58.7881 29.8795 58.3681 30.3195 58.2681 30.3695C58.1181 30.4395 58.0881 30.2595 58.0781 30.1195L62.2481 25.7695C62.4781 25.6195 62.5681 25.9495 62.7681 25.9595L62.7781 25.9495Z" fill="#B8A892" fill-opacity="0.7"/>
<path d="M79.4785 8.43026L79.5685 8.22027C81.3085 6.58027 83.0285 4.83026 84.8485 3.09026C85.0485 2.90026 85.6786 2.24026 85.8386 2.15026C86.0786 2.00026 86.1485 2.19027 86.1885 2.35027L80.2186 8.51028C79.9086 8.72028 79.7685 8.39026 79.4885 8.43026H79.4785Z" fill="#B8A892" fill-opacity="0.7"/>
<path d="M79.6583 23.7001C80.0383 23.6001 85.0383 27.5801 85.8783 28.0101C86.0983 28.1601 85.9683 28.3501 85.8183 28.5301L79.1483 24.3001C78.8783 24.1701 79.5383 23.7401 79.6583 23.7001Z" fill="#B8A892" fill-opacity="0.7"/>
<path d="M82.6502 31.8303L82.0401 31.8603L77.3001 26.3603C77.2001 26.1703 77.6301 25.7603 77.7401 25.5703L82.6401 31.8303H82.6502Z" fill="#B8A892" fill-opacity="0.7"/>
<path d="M59.8281 32.69L63.6381 27L63.9181 27.61L60.2081 32.69H59.8281Z" fill="#B8A892" fill-opacity="0.7"/>
<path d="M61.9483 7.29004H62.0983L65.0283 10.61C65.0883 10.75 64.7683 11.12 64.6883 11.29L61.7383 7.50003L61.9583 7.29004H61.9483Z" fill="#B8A892" fill-opacity="0.7"/>
<path d="M82.6796 0.429688L83.1296 0.459686L78.2697 7.54968C78.1697 7.40968 77.7897 7.19969 77.8897 6.98969L82.6896 0.429688H82.6796Z" fill="#B8A892" fill-opacity="0.7"/>
<path d="M60.78 21.5703L60.54 22.0603L56.94 23.6803C56.67 23.7703 56.65 23.4103 56.5 23.2703L60.78 21.5703Z" fill="#B8A892" fill-opacity="0.7"/>
<path d="M90.1397 17.9896C89.8597 18.2996 89.6897 18.8396 89.1897 18.8496L82.9997 18.4096L82.6797 17.8896L90.1397 17.9796V17.9896Z" fill="#B8A892" fill-opacity="0.7"/>
<path d="M61.08 17.6405L57 17.5605C57.18 17.3605 57.26 16.9905 57.52 16.9805L60.91 17.2404L61.08 17.6405Z" fill="#B8A892" fill-opacity="0.7"/>
<path d="M73.1484 6.07028L74.5484 0.280273C74.6784 0.450273 75.0884 0.380278 75.0584 0.660278L73.6684 5.67029C73.5984 5.89029 73.3384 6.00028 73.1484 6.07028Z" fill="#B8A892" fill-opacity="0.7"/>
<path d="M90.1078 10.1402L82.7578 13.0102L83.0978 12.3902L89.1778 9.68022C89.6678 9.51022 89.8378 9.96022 90.1078 10.1502V10.1402Z" fill="#B8A892" fill-opacity="0.7"/>
<path d="M68.5174 2.44968L69.1974 7.27966C69.0274 7.31966 68.7974 7.36967 68.7474 7.18967L67.9274 3.18967C67.8574 3.06967 68.4774 2.42968 68.5174 2.44968Z" fill="#B8A892" fill-opacity="0.7"/>
<path d="M73.0187 35.6896L72.1387 29.3896C72.3387 29.3896 72.6087 29.3996 72.6587 29.6296L73.7286 34.9896C73.8186 35.2096 73.0587 35.7396 73.0087 35.6896H73.0187Z" fill="#B8A892" fill-opacity="0.7"/>
<path d="M67.9783 29.6699L66.5184 35.6999C66.3984 35.4499 66.0284 35.3699 66.0584 35.0599L67.4783 29.9599C67.5483 29.7399 67.7983 29.6899 67.9783 29.6699Z" fill="#B8A892" fill-opacity="0.7"/>
<path d="M61.988 25.4099L57.918 28.7099L57.968 28.2499L61.378 25.2599C61.598 25.1199 61.768 25.4199 61.988 25.4099Z" fill="#B8A892" fill-opacity="0.7"/>
<path d="M80.2673 32.5406H79.7573L76.6273 27.8105C76.4673 27.4905 76.7673 27.0905 76.9673 26.8105L80.2673 32.5406Z" fill="#B8A892" fill-opacity="0.7"/>
<path d="M63.549 6.39062L65.579 9.41061C65.639 9.64061 65.429 9.9706 65.289 10.2106L63.219 6.5806C63.189 6.4306 63.469 6.41062 63.549 6.39062Z" fill="#B8A892" fill-opacity="0.7"/>
<path d="M86.5089 25.6102C86.5689 25.7002 86.5488 26.1002 86.4788 26.2302L80.2988 23.1902C80.6288 23.1302 80.9188 22.7002 81.2388 22.8002L86.5089 25.6102Z" fill="#B8A892" fill-opacity="0.7"/>
<path d="M61.6683 33.12C61.6683 33.12 61.2584 33.22 61.3284 33.04L64.1384 27.96C64.2584 28.17 64.4384 28.46 64.3384 28.75L61.6584 33.13L61.6683 33.12Z" fill="#B8A892" fill-opacity="0.7"/>
<path d="M80.9591 0.540039L77.5791 6.69003C77.4091 6.50003 77.1491 6.24002 77.3191 5.90002L80.489 0.710022L80.9591 0.540039Z" fill="#B8A892" fill-opacity="0.7"/>
<path d="M62.8473 13.27C62.8673 13.42 62.8173 13.38 62.7673 13.44C62.6373 13.56 62.3473 13.81 62.2173 13.78L59.2773 12.17L59.2973 11.75L62.8473 13.28V13.27Z" fill="#B8A892" fill-opacity="0.7"/>
<path d="M86.6191 4.42014L81.5092 8.85013C81.1992 9.05013 80.9291 8.76013 80.6191 8.82013L86.5991 3.87012L86.6191 4.41013V4.42014Z" fill="#B8A892" fill-opacity="0.7"/>
<path d="M87.9378 8.94041L83.5779 11.2804C83.4979 11.2304 84.0778 10.4404 84.1878 10.3404C84.3878 10.1704 86.5578 8.9404 86.8178 8.8404C87.1878 8.7004 87.5378 8.9904 87.9378 8.9304V8.94041Z" fill="#B8A892" fill-opacity="0.7"/>
<path d="M67.2474 4.31055L67.9475 7.07056C67.9475 7.07056 67.5374 6.97055 67.4974 6.94055C67.3774 6.85055 66.8675 5.45054 66.8375 5.24054C66.8175 5.07054 66.9974 4.64056 67.0974 4.45056C67.1374 4.37056 67.0974 4.34056 67.2374 4.32056L67.2474 4.31055Z" fill="#B8A892" fill-opacity="0.7"/>
<path d="M60.1791 22.9395C60.0791 23.1495 59.9191 23.5095 59.7491 23.6595C59.6191 23.7795 58.2891 24.5394 58.1391 24.5894C57.9291 24.6594 57.7491 24.3895 57.5391 24.3895L60.1791 22.9495V22.9395Z" fill="#B8A892" fill-opacity="0.7"/>
<path d="M60.6685 16.5004L58.2285 16.0704C58.4485 15.9904 58.6585 15.6604 58.8685 15.6504C59.0185 15.6504 60.2385 15.8904 60.3485 15.9604C60.4185 16.0004 60.7185 16.4404 60.6685 16.5104V16.5004Z" fill="#B8A892" fill-opacity="0.7"/>
<path d="M87.9289 20.1099C87.5189 20.2099 87.159 20.6599 86.769 20.6599C86.519 20.6599 84.159 20.1799 84.019 20.0999C83.949 20.0599 83.429 19.4099 83.469 19.3799L87.9289 20.1199V20.1099Z" fill="#B8A892" fill-opacity="0.7"/>
<path d="M75.9191 1.32031C75.9691 1.59031 76.2391 1.7703 76.1691 2.0903C76.1191 2.3503 75.3291 4.32031 75.1691 4.51031C75.1091 4.58031 74.6591 5.00032 74.6191 4.98032C75.0291 3.88032 75.2892 2.55031 75.7592 1.47031C75.7992 1.37031 75.7291 1.35031 75.9191 1.32031Z" fill="#B8A892" fill-opacity="0.7"/>
<path d="M66.589 30.4502C66.179 31.5202 65.919 32.8802 65.469 33.9002C65.429 33.9902 65.489 34.0402 65.329 34.0102C65.069 33.3302 65.119 33.2102 65.349 32.5202C65.599 31.7902 65.879 30.7102 66.589 30.4502Z" fill="#B8A892" fill-opacity="0.7"/>
<path d="M74.7487 33.82L74.5787 33.72L73.6387 30.04C73.6387 30.04 74.1487 30.29 74.1987 30.35C74.3787 30.53 75.0387 32.47 75.0787 32.8C75.1187 33.19 74.8387 33.46 74.7487 33.82Z" fill="#B8A892" fill-opacity="0.7"/>
<path d="M61.5591 14.1803C61.3991 14.4103 60.9791 14.5403 60.7891 14.5203C60.3791 14.4603 59.8392 13.9703 59.4092 13.9103L59.3691 13.5703L61.5591 14.1903V14.1803Z" fill="#B8A892" fill-opacity="0.7"/>
<path d="M86.03 23.0499C86.03 23.0499 86.2 23.4699 86.1 23.5499L82.25 22.3099C82.32 22.1499 83.24 21.9299 83.43 21.9799L86.02 23.0499H86.03Z" fill="#B8A892" fill-opacity="0.7"/>
<path d="M86.1385 6.89041C85.4385 7.25041 84.1385 8.6104 83.5485 8.8504C83.3785 8.9204 82.5385 9.04039 82.4785 8.93039L86.2086 6.40039L86.1385 6.89041Z" fill="#B8A892" fill-opacity="0.7"/>
<path d="M63.0978 32.7896L64.6179 29.5996C64.6379 29.9696 64.6879 30.2296 64.5679 30.6196C64.5079 30.7996 63.6679 32.3596 63.5479 32.5096C63.4279 32.6596 63.2579 32.7696 63.0879 32.7796L63.0978 32.7896Z" fill="#B8A892" fill-opacity="0.7"/>
<path d="M77.7584 32.27C77.5284 32.27 77.3184 32.16 77.1784 31.99C77.0384 31.82 76.1284 30.14 76.0684 29.94C75.9584 29.52 76.0684 29.22 76.1284 28.79L77.7584 32.27Z" fill="#B8A892" fill-opacity="0.7"/>
<path d="M60.7388 25.08L58.2988 26.66L58.4188 26.24L59.9689 25.03C60.1789 24.92 60.6088 24.89 60.7388 25.08Z" fill="#B8A892" fill-opacity="0.7"/>
<path d="M65.9589 8.51988L64.8789 6.17988C65.0689 6.09988 65.2089 6.1799 65.2989 6.2899C65.4189 6.4399 65.9889 7.4199 66.0289 7.5999C66.0989 7.9099 66.0189 8.1599 65.9589 8.5099V8.51988Z" fill="#B8A892" fill-opacity="0.7"/>
<path d="M78.6286 1.61035L76.9086 5.21036C76.8686 4.85036 76.7985 4.62036 76.9285 4.21036C77.0085 3.97036 77.9486 2.24037 78.1286 2.00037C78.2686 1.81037 78.4186 1.67035 78.6386 1.61035H78.6286Z" fill="#B8A892" fill-opacity="0.7"/>
<path d="M66.6684 6.80939C66.5484 6.88939 66.4284 7.0094 66.3384 6.9194C66.2884 6.8694 65.9784 6.12939 65.9384 5.99939C65.8884 5.81939 66.1284 5.73937 66.2584 5.60938L66.3684 5.62939L66.6784 6.79938L66.6684 6.80939Z" fill="#B8A892" fill-opacity="0.7"/>
<path d="M59.4491 24.4502L59.5292 24.7402L59.4791 24.8102C59.2891 24.9102 58.5491 25.5402 58.4291 25.5102C58.3491 25.4902 58.2891 25.1402 58.3291 25.0702L59.4491 24.4502Z" fill="#B8A892" fill-opacity="0.7"/>
<path d="M60.3081 14.9405L60.1681 15.2805L59.0781 15.1505C59.1481 15.0405 59.1781 14.7105 59.2981 14.6905C59.5781 14.6305 59.9881 14.9805 60.3081 14.9405Z" fill="#B8A892" fill-opacity="0.7"/>
<path d="M86.4197 8.29956L84.6997 9.28958L84.5397 9.25959L84.4297 8.99958L86.1197 7.81958C86.3297 7.72958 86.4697 8.21956 86.4197 8.29956Z" fill="#B8A892" fill-opacity="0.7"/>
<path d="M86.449 21.29L86.249 21.93C86.149 22.02 84.679 21.62 84.509 21.54C84.269 21.42 84.389 21.26 84.469 21.04L86.449 21.29Z" fill="#B8A892" fill-opacity="0.7"/>
<path d="M64.2402 32.7499C64.2002 32.6899 64.8002 31.3898 64.8802 31.2998C64.9202 31.2498 64.9402 31.2099 65.0002 31.2299C65.1302 31.2999 65.2402 31.3099 65.2002 31.5099C65.1802 31.6099 64.7602 32.7599 64.7202 32.8099C64.5802 33.0099 64.4002 32.7499 64.2402 32.7499Z" fill="#B8A892" fill-opacity="0.7"/>
<path d="M75.2578 30.7704C75.4178 30.7104 75.5678 30.5904 75.6978 30.7404C75.7678 30.8204 76.2278 31.9204 76.2778 32.1004C76.3678 32.3704 75.7878 32.5404 75.7178 32.4304C75.6178 32.2804 75.1978 30.8604 75.2578 30.7704Z" fill="#B8A892" fill-opacity="0.7"/>
<path d="M77.2291 2.08008L76.5691 3.7301C76.3791 3.7901 76.0891 3.83008 76.1591 3.58008C76.2691 3.18008 76.5691 2.63008 76.6591 2.21008L76.7991 2.1001H77.2291V2.08008Z" fill="#B8A892" fill-opacity="0.7"/>
<path d="M100.152 100.393H99.6016L101.193 96.0586H101.735L103.327 100.393H102.776L101.481 96.7443H101.447L100.152 100.393ZM100.355 98.7H102.573V99.1656H100.355V98.7Z" fill="#B8A892"/>
<path d="M92.8848 96.0596H93.5112L94.9843 99.6576H95.0351L96.5082 96.0596H97.1347V100.394H96.6437V97.1009H96.6013L95.2468 100.394H94.7727L93.4181 97.1009H93.3758V100.394H92.8848V96.0596Z" fill="#B8A892"/>
<path d="M87.5352 100.394V96.0596H90.1511V96.5252H88.06V97.9898H90.0157V98.4554H88.06V99.9285H90.185V100.394H87.5352Z" fill="#B8A892"/>
<path d="M81.6875 96.5242V96.0586H84.9384V96.5242H83.5754V100.393H83.0505V96.5242H81.6875Z" fill="#B8A892"/>
<path d="M78.7065 97.1426C78.6811 96.9282 78.5782 96.7618 78.3976 96.6433C78.217 96.5248 77.9956 96.4655 77.7332 96.4655C77.5413 96.4655 77.3734 96.4966 77.2296 96.5586C77.0871 96.6207 76.9756 96.706 76.8952 96.8147C76.8162 96.9233 76.7767 97.0467 76.7767 97.185C76.7767 97.3006 76.8042 97.4001 76.8593 97.4833C76.9157 97.5651 76.9876 97.6336 77.0751 97.6886C77.1626 97.7422 77.2542 97.7866 77.3502 97.8219C77.4461 97.8557 77.5343 97.8833 77.6147 97.9044L78.0548 98.0229C78.1677 98.0525 78.2932 98.0934 78.4315 98.1456C78.5711 98.1978 78.7044 98.2691 78.8314 98.3594C78.9598 98.4482 79.0656 98.5625 79.1488 98.7022C79.232 98.8418 79.2736 99.0132 79.2736 99.2163C79.2736 99.4505 79.2123 99.6621 79.0895 99.8511C78.9682 100.04 78.7905 100.19 78.5563 100.302C78.3235 100.413 78.0407 100.469 77.7078 100.469C77.3974 100.469 77.1287 100.419 76.9016 100.319C76.6759 100.219 76.4981 100.079 76.3683 99.8998C76.24 99.7207 76.1673 99.5126 76.1504 99.2756H76.6921C76.7062 99.4392 76.7612 99.5747 76.8571 99.6819C76.9545 99.7877 77.0772 99.8667 77.2253 99.9189C77.3749 99.9696 77.5357 99.995 77.7078 99.995C77.9081 99.995 78.088 99.9626 78.2474 99.8977C78.4068 99.8314 78.533 99.7397 78.6261 99.6226C78.7192 99.5041 78.7658 99.3659 78.7658 99.2079C78.7658 99.064 78.7256 98.9469 78.6452 98.8566C78.5648 98.7663 78.459 98.693 78.3278 98.6366C78.1966 98.5801 78.0548 98.5308 77.9024 98.4884L77.3692 98.3361C77.0307 98.2387 76.7626 98.0998 76.5651 97.9192C76.3676 97.7387 76.2689 97.5024 76.2689 97.2104C76.2689 96.9677 76.3345 96.7561 76.4657 96.5756C76.5983 96.3936 76.776 96.2525 76.9989 96.1524C77.2232 96.0508 77.4736 96 77.7501 96C78.0294 96 78.2777 96.0501 78.4949 96.1502C78.7122 96.249 78.8843 96.3844 79.0112 96.5565C79.1396 96.7286 79.2073 96.924 79.2144 97.1426H78.7065Z" fill="#B8A892"/>
<path d="M73.4975 96.0586V100.393H72.9727V96.0586H73.4975Z" fill="#B8A892"/>
<path d="M69.7554 97.1426C69.73 96.9282 69.627 96.7618 69.4464 96.6433C69.2659 96.5248 69.0444 96.4655 68.782 96.4655C68.5901 96.4655 68.4223 96.4966 68.2784 96.5586C68.1359 96.6207 68.0245 96.706 67.9441 96.8147C67.8651 96.9233 67.8256 97.0467 67.8256 97.185C67.8256 97.3006 67.8531 97.4001 67.9081 97.4833C67.9645 97.5651 68.0365 97.6336 68.1239 97.6886C68.2114 97.7422 68.3031 97.7866 68.399 97.8219C68.4949 97.8557 68.5831 97.8833 68.6635 97.9044L69.1036 98.0229C69.2165 98.0525 69.342 98.0934 69.4803 98.1456C69.6199 98.1978 69.7532 98.2691 69.8802 98.3594C70.0086 98.4482 70.1144 98.5625 70.1976 98.7022C70.2808 98.8418 70.3225 99.0132 70.3225 99.2163C70.3225 99.4505 70.2611 99.6621 70.1384 99.8511C70.017 100.04 69.8393 100.19 69.6051 100.302C69.3724 100.413 69.0895 100.469 68.7566 100.469C68.4463 100.469 68.1775 100.419 67.9504 100.319C67.7247 100.219 67.547 100.079 67.4172 99.8998C67.2888 99.7207 67.2161 99.5126 67.1992 99.2756H67.7409C67.755 99.4392 67.81 99.5747 67.906 99.6819C68.0033 99.7877 68.126 99.8667 68.2742 99.9189C68.4237 99.9696 68.5845 99.995 68.7566 99.995C68.9569 99.995 69.1368 99.9626 69.2962 99.8977C69.4556 99.8314 69.5819 99.7397 69.675 99.6226C69.7681 99.5041 69.8146 99.3659 69.8146 99.2079C69.8146 99.064 69.7744 98.9469 69.694 98.8566C69.6136 98.7663 69.5078 98.693 69.3766 98.6366C69.2454 98.5801 69.1036 98.5308 68.9513 98.4884L68.418 98.3361C68.0795 98.2387 67.8115 98.0998 67.614 97.9192C67.4165 97.7387 67.3177 97.5024 67.3177 97.2104C67.3177 96.9677 67.3833 96.7561 67.5145 96.5756C67.6471 96.3936 67.8249 96.2525 68.0477 96.1524C68.272 96.0508 68.5224 96 68.7989 96C69.0782 96 69.3265 96.0501 69.5438 96.1502C69.761 96.249 69.9331 96.3844 70.0601 96.5565C70.1884 96.7286 70.2562 96.924 70.2632 97.1426H69.7554Z" fill="#B8A892"/>
<path d="M64.1655 97.1426C64.1401 96.9282 64.0371 96.7618 63.8566 96.6433C63.676 96.5248 63.4545 96.4655 63.1922 96.4655C63.0003 96.4655 62.8324 96.4966 62.6885 96.5586C62.5461 96.6207 62.4346 96.706 62.3542 96.8147C62.2752 96.9233 62.2357 97.0467 62.2357 97.185C62.2357 97.3006 62.2632 97.4001 62.3182 97.4833C62.3747 97.5651 62.4466 97.6336 62.5341 97.6886C62.6215 97.7422 62.7132 97.7866 62.8092 97.8219C62.9051 97.8557 62.9932 97.8833 63.0737 97.9044L63.5138 98.0229C63.6266 98.0525 63.7522 98.0934 63.8904 98.1456C64.0301 98.1978 64.1634 98.2691 64.2904 98.3594C64.4187 98.4482 64.5245 98.5625 64.6078 98.7022C64.691 98.8418 64.7326 99.0132 64.7326 99.2163C64.7326 99.4505 64.6712 99.6621 64.5485 99.8511C64.4272 100.04 64.2495 100.19 64.0153 100.302C63.7825 100.413 63.4997 100.469 63.1668 100.469C62.8564 100.469 62.5877 100.419 62.3606 100.319C62.1349 100.219 61.9571 100.079 61.8273 99.8998C61.699 99.7207 61.6263 99.5126 61.6094 99.2756H62.1511C62.1652 99.4392 62.2202 99.5747 62.3161 99.6819C62.4135 99.7877 62.5362 99.8667 62.6843 99.9189C62.8338 99.9696 62.9947 99.995 63.1668 99.995C63.3671 99.995 63.5469 99.9626 63.7063 99.8977C63.8658 99.8314 63.992 99.7397 64.0851 99.6226C64.1782 99.5041 64.2248 99.3659 64.2248 99.2079C64.2248 99.064 64.1846 98.9469 64.1042 98.8566C64.0237 98.7663 63.9179 98.693 63.7868 98.6366C63.6556 98.5801 63.5138 98.5308 63.3614 98.4884L62.8282 98.3361C62.4896 98.2387 62.2216 98.0998 62.0241 97.9192C61.8266 97.7387 61.7279 97.5024 61.7279 97.2104C61.7279 96.9677 61.7935 96.7561 61.9247 96.5756C62.0573 96.3936 62.235 96.2525 62.4579 96.1524C62.6822 96.0508 62.9326 96 63.2091 96C63.4884 96 63.7367 96.0501 63.9539 96.1502C64.1712 96.249 64.3433 96.3844 64.4702 96.5565C64.5986 96.7286 64.6663 96.924 64.6734 97.1426H64.1655Z" fill="#B8A892"/>
<path d="M59.1265 98.226C59.1265 98.6831 59.044 99.0781 58.879 99.411C58.7139 99.7439 58.4875 100.001 58.1997 100.181C57.9119 100.362 57.5833 100.452 57.2137 100.452C56.8441 100.452 56.5154 100.362 56.2276 100.181C55.9398 100.001 55.7134 99.7439 55.5484 99.411C55.3833 99.0781 55.3008 98.6831 55.3008 98.226C55.3008 97.769 55.3833 97.374 55.5484 97.0411C55.7134 96.7082 55.9398 96.4514 56.2276 96.2708C56.5154 96.0903 56.8441 96 57.2137 96C57.5833 96 57.9119 96.0903 58.1997 96.2708C58.4875 96.4514 58.7139 96.7082 58.879 97.0411C59.044 97.374 59.1265 97.769 59.1265 98.226ZM58.6187 98.226C58.6187 97.8508 58.5559 97.5341 58.4304 97.276C58.3062 97.0178 58.1377 96.8224 57.9246 96.6898C57.713 96.5572 57.476 96.4909 57.2137 96.4909C56.9513 96.4909 56.7136 96.5572 56.5006 96.6898C56.289 96.8224 56.1204 97.0178 55.9948 97.276C55.8707 97.5341 55.8086 97.8508 55.8086 98.226C55.8086 98.6013 55.8707 98.918 55.9948 99.1761C56.1204 99.4343 56.289 99.6297 56.5006 99.7623C56.7136 99.8949 56.9513 99.9612 57.2137 99.9612C57.476 99.9612 57.713 99.8949 57.9246 99.7623C58.1377 99.6297 58.3062 99.4343 58.4304 99.1761C58.5559 98.918 58.6187 98.6013 58.6187 98.226Z" fill="#B8A892"/>
<path d="M52.8342 97.4135H52.3094C52.2784 97.2626 52.2241 97.13 52.1465 97.0157C52.0703 96.9014 51.9772 96.8055 51.8672 96.7279C51.7586 96.6489 51.638 96.5897 51.5054 96.5502C51.3727 96.5107 51.2345 96.4909 51.0906 96.4909C50.8282 96.4909 50.5905 96.5572 50.3775 96.6898C50.1659 96.8224 49.9973 97.0178 49.8718 97.276C49.7476 97.5341 49.6856 97.8508 49.6856 98.226C49.6856 98.6013 49.7476 98.918 49.8718 99.1761C49.9973 99.4343 50.1659 99.6297 50.3775 99.7623C50.5905 99.8949 50.8282 99.9612 51.0906 99.9612C51.2345 99.9612 51.3727 99.9414 51.5054 99.9019C51.638 99.8624 51.7586 99.8039 51.8672 99.7263C51.9772 99.6473 52.0703 99.5507 52.1465 99.4364C52.2241 99.3207 52.2784 99.1881 52.3094 99.0386H52.8342C52.7947 99.2601 52.7228 99.4583 52.6184 99.6332C52.514 99.8081 52.3842 99.9569 52.229 100.08C52.0739 100.201 51.8996 100.293 51.7064 100.357C51.5145 100.42 51.3093 100.452 51.0906 100.452C50.721 100.452 50.3923 100.362 50.1045 100.181C49.8168 100.001 49.5904 99.7439 49.4253 99.411C49.2603 99.0781 49.1777 98.6831 49.1777 98.226C49.1777 97.769 49.2603 97.374 49.4253 97.0411C49.5904 96.7082 49.8168 96.4514 50.1045 96.2708C50.3923 96.0903 50.721 96 51.0906 96C51.3093 96 51.5145 96.0317 51.7064 96.0952C51.8996 96.1587 52.0739 96.2518 52.229 96.3745C52.3842 96.4959 52.514 96.644 52.6184 96.8189C52.7228 96.9924 52.7947 97.1906 52.8342 97.4135Z" fill="#B8A892"/>
<path d="M44 100.393V96.0586H46.616V96.5242H44.5249V97.9888H46.4805V98.4545H44.5249V99.9276H46.6499V100.393H44Z" fill="#B8A892"/>
<path d="M98.9551 109.863V105.528H99.48V109.397H101.495V109.863H98.9551Z" fill="#B8A892"/>
<path d="M93.3179 109.863H92.7676L94.3592 105.528H94.901L96.4926 109.863H95.9423L94.647 106.214H94.6132L93.3179 109.863ZM93.5211 108.17H95.7391V108.635H93.5211V108.17Z" fill="#B8A892"/>
<path d="M90.3044 105.528V109.863H89.7964L87.4344 106.46H87.3921V109.863H86.8672V105.528H87.3751L89.7456 108.94H89.788V105.528H90.3044Z" fill="#B8A892"/>
<path d="M84.1949 107.695C84.1949 108.152 84.1124 108.547 83.9473 108.88C83.7823 109.213 83.5559 109.469 83.2681 109.65C82.9803 109.831 82.6516 109.921 82.282 109.921C81.9124 109.921 81.5837 109.831 81.296 109.65C81.0082 109.469 80.7818 109.213 80.6167 108.88C80.4517 108.547 80.3691 108.152 80.3691 107.695C80.3691 107.238 80.4517 106.843 80.6167 106.51C80.7818 106.177 81.0082 105.92 81.296 105.74C81.5837 105.559 81.9124 105.469 82.282 105.469C82.6516 105.469 82.9803 105.559 83.2681 105.74C83.5559 105.92 83.7823 106.177 83.9473 106.51C84.1124 106.843 84.1949 107.238 84.1949 107.695ZM83.6871 107.695C83.6871 107.32 83.6243 107.003 83.4987 106.745C83.3746 106.487 83.206 106.291 82.993 106.159C82.7814 106.026 82.5444 105.96 82.282 105.96C82.0196 105.96 81.7819 106.026 81.5689 106.159C81.3573 106.291 81.1887 106.487 81.0632 106.745C80.9391 107.003 80.877 107.32 80.877 107.695C80.877 108.07 80.9391 108.387 81.0632 108.645C81.1887 108.903 81.3573 109.098 81.5689 109.231C81.7819 109.364 82.0196 109.43 82.282 109.43C82.5444 109.43 82.7814 109.364 82.993 109.231C83.206 109.098 83.3746 108.903 83.4987 108.645C83.6243 108.387 83.6871 108.07 83.6871 107.695Z" fill="#B8A892"/>
<path d="M77.6987 105.528V109.863H77.1738V105.528H77.6987Z" fill="#B8A892"/>
<path d="M74.5393 106.882H74.0145C73.9835 106.731 73.9292 106.599 73.8516 106.484C73.7754 106.37 73.6823 106.274 73.5723 106.197C73.4636 106.118 73.343 106.058 73.2104 106.019C73.0778 105.979 72.9396 105.96 72.7957 105.96C72.5333 105.96 72.2956 106.026 72.0826 106.159C71.871 106.291 71.7024 106.487 71.5769 106.745C71.4527 107.003 71.3907 107.32 71.3907 107.695C71.3907 108.07 71.4527 108.387 71.5769 108.645C71.7024 108.903 71.871 109.098 72.0826 109.231C72.2956 109.364 72.5333 109.43 72.7957 109.43C72.9396 109.43 73.0778 109.41 73.2104 109.371C73.343 109.331 73.4636 109.273 73.5723 109.195C73.6823 109.116 73.7754 109.019 73.8516 108.905C73.9292 108.789 73.9835 108.657 74.0145 108.507H74.5393C74.4998 108.729 74.4278 108.927 74.3235 109.102C74.2191 109.277 74.0893 109.426 73.9341 109.548C73.7789 109.67 73.6047 109.762 73.4114 109.826C73.2196 109.889 73.0143 109.921 72.7957 109.921C72.4261 109.921 72.0974 109.831 71.8096 109.65C71.5218 109.469 71.2954 109.213 71.1304 108.88C70.9653 108.547 70.8828 108.152 70.8828 107.695C70.8828 107.238 70.9653 106.843 71.1304 106.51C71.2954 106.177 71.5218 105.92 71.8096 105.74C72.0974 105.559 72.4261 105.469 72.7957 105.469C73.0143 105.469 73.2196 105.5 73.4114 105.564C73.6047 105.627 73.7789 105.721 73.9341 105.843C74.0893 105.965 74.2191 106.113 74.3235 106.288C74.4278 106.461 74.4998 106.659 74.5393 106.882Z" fill="#B8A892"/>
<path d="M68.2124 105.527V109.862H67.6875V105.527H68.2124Z" fill="#B8A892"/>
<path d="M62.0898 109.862V105.527H63.5545C63.8931 105.527 64.1711 105.585 64.3884 105.701C64.6057 105.815 64.7665 105.973 64.8709 106.173C64.9753 106.373 65.0275 106.601 65.0275 106.857C65.0275 107.112 64.9753 107.338 64.8709 107.536C64.7665 107.733 64.6064 107.889 64.3905 108.002C64.1746 108.113 63.8987 108.169 63.5629 108.169H62.3777V107.695H63.546C63.7774 107.695 63.9636 107.661 64.1047 107.593C64.2473 107.525 64.3503 107.429 64.4138 107.305C64.4787 107.18 64.5111 107.03 64.5111 106.857C64.5111 106.683 64.4787 106.531 64.4138 106.401C64.3489 106.272 64.2451 106.171 64.1026 106.101C63.9601 106.029 63.7718 105.993 63.5375 105.993H62.6147V109.862H62.0898ZM64.1301 107.915L65.1969 109.862H64.5873L63.5375 107.915H64.1301Z" fill="#B8A892"/>
<path d="M56.2402 105.993V105.527H59.4912V105.993H58.1282V109.862H57.6033V105.993H56.2402Z" fill="#B8A892"/>
<path d="M53.1174 105.528H53.6421V108.398C53.6421 108.694 53.5723 108.958 53.4326 109.191C53.2944 109.422 53.099 109.605 52.8465 109.739C52.594 109.872 52.2978 109.938 51.9578 109.938C51.6178 109.938 51.3216 109.872 51.0691 109.739C50.8165 109.605 50.6205 109.422 50.4808 109.191C50.3426 108.958 50.2734 108.694 50.2734 108.398V105.528H50.7982V108.355C50.7982 108.567 50.8448 108.755 50.9379 108.92C51.031 109.084 51.1636 109.213 51.3357 109.308C51.5092 109.401 51.7166 109.447 51.9578 109.447C52.199 109.447 52.4064 109.401 52.5799 109.308C52.7534 109.213 52.886 109.084 52.9777 108.92C53.0708 108.755 53.1174 108.567 53.1174 108.355V105.528Z" fill="#B8A892"/>
<path d="M47.4372 105.527V109.862H46.9292L44.5672 106.459H44.5249V109.862H44V105.527H44.508L46.8784 108.939H46.9208V105.527H47.4372Z" fill="#B8A892"/>
</svg>
