<svg width="394" height="69" viewBox="0 0 394 69" fill="none" xmlns="http://www.w3.org/2000/svg">
<path d="M385.713 32H384.978L387.104 26.2108H387.828L389.953 32H389.218L387.488 27.1266H387.443L385.713 32ZM385.985 29.7386H388.947V30.3605H385.985V29.7386Z" fill="#B5705B"></path>
<path d="M376.006 26.2108H376.843L378.81 31.0163H378.878L380.845 26.2108H381.682V32H381.026V27.6015H380.97L379.161 32H378.527L376.718 27.6015H376.662V32H376.006V26.2108Z" fill="#B5705B"></path>
<path d="M368.86 32V26.2108H372.354V26.8326H369.561V28.7888H372.173V29.4107H369.561V31.3781H372.399V32H368.86Z" fill="#B5705B"></path>
<path d="M361.048 26.8326V26.2108H365.39V26.8326H363.57V32H362.869V26.8326H361.048Z" fill="#B5705B"></path>
<path d="M357.067 27.6581C357.033 27.3716 356.895 27.1492 356.654 26.9909C356.413 26.8326 356.117 26.7535 355.766 26.7535C355.51 26.7535 355.286 26.7949 355.094 26.8779C354.903 26.9608 354.754 27.0748 354.647 27.2199C354.541 27.365 354.489 27.5299 354.489 27.7146C354.489 27.8691 354.525 28.002 354.599 28.1132C354.674 28.2225 354.77 28.3139 354.887 28.3874C355.004 28.459 355.127 28.5183 355.255 28.5654C355.383 28.6107 355.501 28.6474 355.608 28.6757L356.196 28.834C356.347 28.8736 356.515 28.9282 356.699 28.9979C356.886 29.0677 357.064 29.1628 357.234 29.2835C357.405 29.4022 357.546 29.5548 357.658 29.7414C357.769 29.928 357.824 30.1569 357.824 30.4283C357.824 30.7411 357.742 31.0238 357.578 31.2763C357.416 31.5289 357.179 31.7296 356.866 31.8784C356.555 32.0273 356.177 32.1018 355.733 32.1018C355.318 32.1018 354.959 32.0349 354.655 31.901C354.354 31.7672 354.117 31.5807 353.943 31.3413C353.772 31.102 353.675 30.824 353.652 30.5074H354.376C354.394 30.7261 354.468 30.907 354.596 31.0502C354.726 31.1915 354.89 31.2971 355.088 31.3668C355.288 31.4346 355.503 31.4686 355.733 31.4686C356 31.4686 356.24 31.4252 356.453 31.3385C356.666 31.2499 356.835 31.1275 356.959 30.971C357.084 30.8127 357.146 30.6281 357.146 30.417C357.146 30.2248 357.092 30.0684 356.985 29.9477C356.877 29.8271 356.736 29.7291 356.561 29.6538C356.385 29.5784 356.196 29.5124 355.993 29.4559L355.28 29.2524C354.828 29.1223 354.47 28.9367 354.206 28.6955C353.942 28.4543 353.81 28.1386 353.81 27.7485C353.81 27.4244 353.898 27.1417 354.073 26.9005C354.25 26.6574 354.488 26.4689 354.786 26.3351C355.085 26.1994 355.42 26.1316 355.789 26.1316C356.162 26.1316 356.494 26.1985 356.784 26.3323C357.074 26.4642 357.304 26.6451 357.474 26.875C357.645 27.1049 357.736 27.366 357.745 27.6581H357.067Z" fill="#B5705B"></path>
<path d="M350.107 26.2108V32H349.406V26.2108H350.107Z" fill="#B5705B"></path>
<path d="M345.108 27.6581C345.074 27.3716 344.936 27.1492 344.695 26.9909C344.454 26.8326 344.158 26.7535 343.807 26.7535C343.551 26.7535 343.327 26.7949 343.135 26.8779C342.944 26.9608 342.795 27.0748 342.688 27.2199C342.583 27.365 342.53 27.5299 342.53 27.7146C342.53 27.8691 342.567 28.002 342.64 28.1132C342.715 28.2225 342.811 28.3139 342.928 28.3874C343.045 28.459 343.168 28.5183 343.296 28.5654C343.424 28.6107 343.542 28.6474 343.649 28.6757L344.237 28.834C344.388 28.8736 344.556 28.9282 344.74 28.9979C344.927 29.0677 345.105 29.1628 345.275 29.2835C345.446 29.4022 345.587 29.5548 345.699 29.7414C345.81 29.928 345.865 30.1569 345.865 30.4283C345.865 30.7411 345.783 31.0238 345.619 31.2763C345.457 31.5289 345.22 31.7296 344.907 31.8784C344.596 32.0273 344.218 32.1018 343.774 32.1018C343.359 32.1018 343 32.0349 342.697 31.901C342.395 31.7672 342.158 31.5807 341.984 31.3413C341.813 31.102 341.716 30.824 341.693 30.5074H342.417C342.436 30.7261 342.509 30.907 342.637 31.0502C342.767 31.1915 342.931 31.2971 343.129 31.3668C343.329 31.4346 343.544 31.4686 343.774 31.4686C344.041 31.4686 344.281 31.4252 344.494 31.3385C344.707 31.2499 344.876 31.1275 345 30.971C345.125 30.8127 345.187 30.6281 345.187 30.417C345.187 30.2248 345.133 30.0684 345.026 29.9477C344.918 29.8271 344.777 29.7291 344.602 29.6538C344.427 29.5784 344.237 29.5124 344.034 29.4559L343.321 29.2524C342.869 29.1223 342.511 28.9367 342.247 28.6955C341.983 28.4543 341.851 28.1386 341.851 27.7485C341.851 27.4244 341.939 27.1417 342.114 26.9005C342.291 26.6574 342.529 26.4689 342.827 26.3351C343.126 26.1994 343.461 26.1316 343.83 26.1316C344.203 26.1316 344.535 26.1985 344.825 26.3323C345.115 26.4642 345.345 26.6451 345.515 26.875C345.686 27.1049 345.777 27.366 345.786 27.6581H345.108Z" fill="#B5705B"></path>
<path d="M337.644 27.6581C337.61 27.3716 337.472 27.1492 337.231 26.9909C336.99 26.8326 336.694 26.7535 336.343 26.7535C336.087 26.7535 335.863 26.7949 335.67 26.8779C335.48 26.9608 335.331 27.0748 335.224 27.2199C335.118 27.365 335.066 27.5299 335.066 27.7146C335.066 27.8691 335.102 28.002 335.176 28.1132C335.251 28.2225 335.347 28.3139 335.464 28.3874C335.581 28.459 335.703 28.5183 335.832 28.5654C335.96 28.6107 336.077 28.6474 336.185 28.6757L336.773 28.834C336.924 28.8736 337.091 28.9282 337.276 28.9979C337.463 29.0677 337.641 29.1628 337.81 29.2835C337.982 29.4022 338.123 29.5548 338.234 29.7414C338.346 29.928 338.401 30.1569 338.401 30.4283C338.401 30.7411 338.319 31.0238 338.155 31.2763C337.993 31.5289 337.756 31.7296 337.443 31.8784C337.132 32.0273 336.754 32.1018 336.309 32.1018C335.895 32.1018 335.536 32.0349 335.232 31.901C334.931 31.7672 334.693 31.5807 334.52 31.3413C334.348 31.102 334.251 30.824 334.229 30.5074H334.952C334.971 30.7261 335.045 30.907 335.173 31.0502C335.303 31.1915 335.467 31.2971 335.665 31.3668C335.865 31.4346 336.079 31.4686 336.309 31.4686C336.577 31.4686 336.817 31.4252 337.03 31.3385C337.243 31.2499 337.412 31.1275 337.536 30.971C337.66 30.8127 337.723 30.6281 337.723 30.417C337.723 30.2248 337.669 30.0684 337.562 29.9477C337.454 29.8271 337.313 29.7291 337.138 29.6538C336.962 29.5784 336.773 29.5124 336.569 29.4559L335.857 29.2524C335.405 29.1223 335.047 28.9367 334.783 28.6955C334.519 28.4543 334.387 28.1386 334.387 27.7485C334.387 27.4244 334.475 27.1417 334.65 26.9005C334.827 26.6574 335.065 26.4689 335.362 26.3351C335.662 26.1994 335.996 26.1316 336.366 26.1316C336.739 26.1316 337.071 26.1985 337.361 26.3323C337.651 26.4642 337.881 26.6451 338.051 26.875C338.222 27.1049 338.313 27.366 338.322 27.6581H337.644Z" fill="#B5705B"></path>
<path d="M330.911 29.1054C330.911 29.7159 330.8 30.2436 330.58 30.6884C330.359 31.1331 330.057 31.4761 329.673 31.7173C329.288 31.9585 328.849 32.0791 328.355 32.0791C327.862 32.0791 327.422 31.9585 327.038 31.7173C326.654 31.4761 326.351 31.1331 326.131 30.6884C325.91 30.2436 325.8 29.7159 325.8 29.1054C325.8 28.4948 325.91 27.9671 326.131 27.5224C326.351 27.0776 326.654 26.7346 327.038 26.4934C327.422 26.2522 327.862 26.1316 328.355 26.1316C328.849 26.1316 329.288 26.2522 329.673 26.4934C330.057 26.7346 330.359 27.0776 330.58 27.5224C330.8 27.9671 330.911 28.4948 330.911 29.1054ZM330.232 29.1054C330.232 28.6041 330.148 28.181 329.981 27.8361C329.815 27.4913 329.59 27.2303 329.305 27.0531C329.022 26.876 328.706 26.7874 328.355 26.7874C328.005 26.7874 327.687 26.876 327.403 27.0531C327.12 27.2303 326.895 27.4913 326.727 27.8361C326.561 28.181 326.478 28.6041 326.478 29.1054C326.478 29.6066 326.561 30.0297 326.727 30.3746C326.895 30.7195 327.12 30.9805 327.403 31.1576C327.687 31.3348 328.005 31.4233 328.355 31.4233C328.706 31.4233 329.022 31.3348 329.305 31.1576C329.59 30.9805 329.815 30.7195 329.981 30.3746C330.148 30.0297 330.232 29.6066 330.232 29.1054Z" fill="#B5705B"></path>
<path d="M322.505 28.0199H321.804C321.763 27.8182 321.69 27.6411 321.586 27.4884C321.485 27.3358 321.36 27.2077 321.213 27.104C321.068 26.9985 320.907 26.9193 320.73 26.8666C320.553 26.8138 320.368 26.7874 320.176 26.7874C319.825 26.7874 319.508 26.876 319.223 27.0531C318.941 27.2303 318.715 27.4913 318.548 27.8361C318.382 28.181 318.299 28.6041 318.299 29.1054C318.299 29.6066 318.382 30.0297 318.548 30.3746C318.715 30.7195 318.941 30.9805 319.223 31.1576C319.508 31.3348 319.825 31.4233 320.176 31.4233C320.368 31.4233 320.553 31.3969 320.73 31.3442C320.907 31.2914 321.068 31.2132 321.213 31.1096C321.36 31.004 321.485 30.8749 321.586 30.7223C321.69 30.5678 321.763 30.3906 321.804 30.1908H322.505C322.452 30.4867 322.356 30.7515 322.217 30.9852C322.077 31.2189 321.904 31.4177 321.697 31.5816C321.489 31.7437 321.257 31.8671 320.998 31.9519C320.742 32.0367 320.468 32.0791 320.176 32.0791C319.682 32.0791 319.243 31.9585 318.859 31.7173C318.474 31.4761 318.172 31.1331 317.951 30.6884C317.731 30.2436 317.62 29.7159 317.62 29.1054C317.62 28.4948 317.731 27.9671 317.951 27.5224C318.172 27.0776 318.474 26.7346 318.859 26.4934C319.243 26.2522 319.682 26.1316 320.176 26.1316C320.468 26.1316 320.742 26.174 320.998 26.2588C321.257 26.3436 321.489 26.468 321.697 26.6319C321.904 26.794 322.077 26.9919 322.217 27.2256C322.356 27.4574 322.452 27.7221 322.505 28.0199Z" fill="#B5705B"></path>
<path d="M310.701 32V26.2108H314.195V26.8326H311.402V28.7888H314.014V29.4107H311.402V31.3781H314.24V32H310.701Z" fill="#B5705B"></path>
<path d="M384.115 44.0018V38.2126H384.816V43.3799H387.507V44.0018H384.115Z" fill="#B5705B"></path>
<path d="M376.585 44.0018H375.85L377.976 38.2126H378.7L380.826 44.0018H380.091L378.361 39.1285H378.315L376.585 44.0018ZM376.857 41.7404H379.819V42.3623H376.857V41.7404Z" fill="#B5705B"></path>
<path d="M372.557 38.2126V44.0018H371.879L368.724 39.4564H368.667V44.0018H367.966V38.2126H368.645L371.811 42.7694H371.867V38.2126H372.557Z" fill="#B5705B"></path>
<path d="M364.4 41.1072C364.4 41.7178 364.289 42.2454 364.069 42.6902C363.848 43.1349 363.546 43.4779 363.161 43.7191C362.777 43.9604 362.338 44.081 361.844 44.081C361.35 44.081 360.911 43.9604 360.527 43.7191C360.142 43.4779 359.84 43.1349 359.619 42.6902C359.399 42.2454 359.289 41.7178 359.289 41.1072C359.289 40.4966 359.399 39.9689 359.619 39.5242C359.84 39.0795 360.142 38.7365 360.527 38.4953C360.911 38.254 361.35 38.1334 361.844 38.1334C362.338 38.1334 362.777 38.254 363.161 38.4953C363.546 38.7365 363.848 39.0795 364.069 39.5242C364.289 39.9689 364.4 40.4966 364.4 41.1072ZM363.721 41.1072C363.721 40.6059 363.637 40.1828 363.47 39.838C363.304 39.4931 363.079 39.2321 362.794 39.055C362.511 38.8778 362.195 38.7892 361.844 38.7892C361.494 38.7892 361.176 38.8778 360.892 39.055C360.609 39.2321 360.384 39.4931 360.216 39.838C360.05 40.1828 359.967 40.6059 359.967 41.1072C359.967 41.6085 360.05 42.0316 360.216 42.3764C360.384 42.7213 360.609 42.9823 360.892 43.1594C361.176 43.3366 361.494 43.4252 361.844 43.4252C362.195 43.4252 362.511 43.3366 362.794 43.1594C363.079 42.9823 363.304 42.7213 363.47 42.3764C363.637 42.0316 363.721 41.6085 363.721 41.1072Z" fill="#B5705B"></path>
<path d="M355.721 38.2126V44.0018H355.02V38.2126H355.721Z" fill="#B5705B"></path>
<path d="M351.499 40.0217H350.798C350.757 39.8201 350.684 39.6429 350.581 39.4903C350.479 39.3376 350.354 39.2095 350.207 39.1058C350.062 39.0003 349.901 38.9212 349.724 38.8684C349.547 38.8156 349.362 38.7892 349.17 38.7892C348.819 38.7892 348.502 38.8778 348.217 39.055C347.935 39.2321 347.71 39.4931 347.542 39.838C347.376 40.1828 347.293 40.6059 347.293 41.1072C347.293 41.6085 347.376 42.0316 347.542 42.3764C347.71 42.7213 347.935 42.9823 348.217 43.1594C348.502 43.3366 348.819 43.4252 349.17 43.4252C349.362 43.4252 349.547 43.3988 349.724 43.346C349.901 43.2932 350.062 43.215 350.207 43.1114C350.354 43.0058 350.479 42.8768 350.581 42.7241C350.684 42.5696 350.757 42.3924 350.798 42.1927H351.499C351.447 42.4885 351.35 42.7533 351.211 42.987C351.071 43.2207 350.898 43.4195 350.691 43.5835C350.484 43.7455 350.251 43.869 349.993 43.9538C349.736 44.0386 349.462 44.081 349.17 44.081C348.676 44.081 348.237 43.9604 347.853 43.7191C347.468 43.4779 347.166 43.1349 346.945 42.6902C346.725 42.2454 346.615 41.7178 346.615 41.1072C346.615 40.4966 346.725 39.9689 346.945 39.5242C347.166 39.0795 347.468 38.7365 347.853 38.4953C348.237 38.254 348.676 38.1334 349.17 38.1334C349.462 38.1334 349.736 38.1758 349.993 38.2606C350.251 38.3454 350.484 38.4698 350.691 38.6338C350.898 38.7958 351.071 38.9937 351.211 39.2274C351.35 39.4592 351.447 39.724 351.499 40.0217Z" fill="#B5705B"></path>
<path d="M343.047 38.2126V44.0018H342.346V38.2126H343.047Z" fill="#B5705B"></path>
<path d="M334.866 44.0018V38.2126H336.822C337.275 38.2126 337.646 38.2899 337.936 38.4444C338.226 38.597 338.441 38.8072 338.581 39.0748C338.72 39.3424 338.79 39.6467 338.79 39.9878C338.79 40.3289 338.72 40.6314 338.581 40.8952C338.441 41.159 338.227 41.3663 337.939 41.5171C337.651 41.666 337.282 41.7404 336.834 41.7404H335.251V41.1072H336.811C337.12 41.1072 337.369 41.062 337.557 40.9715C337.748 40.8811 337.885 40.7529 337.97 40.5871C338.057 40.4194 338.1 40.2196 338.1 39.9878C338.1 39.756 338.057 39.5534 337.97 39.38C337.883 39.2067 337.745 39.0729 337.554 38.9786C337.364 38.8825 337.113 38.8345 336.8 38.8345H335.567V44.0018H334.866ZM337.591 41.4012L339.016 44.0018H338.202L336.8 41.4012H337.591Z" fill="#B5705B"></path>
<path d="M327.054 38.8345V38.2126H331.396V38.8345H329.576V44.0018H328.875V38.8345H327.054Z" fill="#B5705B"></path>
<path d="M322.882 38.2126H323.583V42.0457C323.583 42.4414 323.49 42.7948 323.303 43.1057C323.118 43.4148 322.857 43.6588 322.52 43.8379C322.183 44.015 321.787 44.1036 321.333 44.1036C320.879 44.1036 320.483 44.015 320.145 43.8379C319.808 43.6588 319.546 43.4148 319.36 43.1057C319.175 42.7948 319.083 42.4414 319.083 42.0457V38.2126H319.784V41.9892C319.784 42.2718 319.846 42.5234 319.97 42.7439C320.095 42.9625 320.272 43.135 320.502 43.2612C320.733 43.3856 321.01 43.4478 321.333 43.4478C321.655 43.4478 321.932 43.3856 322.164 43.2612C322.396 43.135 322.573 42.9625 322.695 42.7439C322.82 42.5234 322.882 42.2718 322.882 41.9892V38.2126Z" fill="#B5705B"></path>
<path d="M315.292 38.2126V44.0018H314.613L311.459 39.4564H311.402V44.0018H310.701V38.2126H311.379L314.545 42.7694H314.602V38.2126H315.292Z" fill="#B5705B"></path>
<path d="M285.112 12.3314C288.661 12.3315 292.226 13.2229 296.098 14.9592L297.283 24.148H296.913C295.576 21.3053 293.825 18.8768 291.689 16.787C289.553 14.7125 287.232 13.6686 284.696 13.6686C282.714 13.6687 280.977 14.3442 279.502 15.681C278.042 17.018 277.305 18.9698 277.305 21.5052C277.305 23.5798 277.92 25.1936 279.103 26.3615C280.286 27.5294 282.729 29.2352 286.432 31.4939C286.709 31.7091 286.926 31.8624 287.079 31.9546C288.416 32.7536 289.307 33.2613 289.737 33.5379C290.167 33.8144 290.92 34.306 291.996 34.9666C293.071 35.6427 293.794 36.151 294.163 36.5198C294.531 36.8886 295.116 37.3801 295.869 38.01C296.637 38.6553 297.145 39.2239 297.452 39.7463C297.759 40.2687 298.096 40.8683 298.465 41.6057C298.834 42.3433 299.08 43.0659 299.203 43.8342C299.326 44.6025 299.388 45.417 299.388 46.3389C299.388 50.1499 298.143 53.1163 295.608 55.2216C293.072 57.3267 290.091 58.3714 286.634 58.3715L286.572 58.4331L286.602 58.4631C282.269 58.463 277.597 57.0346 272.603 54.1305L271.927 44.5095H272.296C273.571 47.7826 275.415 50.6413 277.781 53.1461C280.163 55.6508 282.944 56.8962 286.11 56.8963C288.584 56.8963 290.598 56.1276 292.15 54.6063C293.702 53.0851 294.5 51.1028 294.5 48.6905C294.5 47.6148 294.316 46.6148 293.916 45.6621C293.517 44.7096 293.117 43.9265 292.702 43.312C292.272 42.6973 291.55 42.0048 290.505 41.175C289.476 40.3453 288.707 39.8083 288.215 39.5317C287.723 39.2551 286.817 38.7006 285.464 37.9169C285.065 37.6713 284.758 37.4868 284.543 37.3332C280.425 34.9207 277.397 32.7544 275.507 30.8336C273.617 28.9127 272.663 26.4686 272.663 23.5027C272.664 20.0914 273.847 17.3714 276.229 15.3584C278.611 13.3453 281.562 12.3314 285.112 12.3314ZM236.813 12.2384C242.944 12.2386 247.923 14.4054 251.888 18.7079C255.852 23.0107 257.835 28.5434 257.835 35.2742C257.835 42.005 255.852 47.5684 251.888 51.902C247.923 56.2354 242.928 58.4015 236.843 58.4015H236.813C230.682 58.4015 225.64 56.2355 221.676 51.902C217.711 47.5531 215.728 42.005 215.728 35.2742C215.728 28.5434 217.711 23.0107 221.676 18.7079C225.64 14.4052 230.682 12.2384 236.813 12.2384ZM207.83 13.0683H207.845V13.4375C206.662 13.837 205.678 14.2366 204.91 14.6515C204.142 15.0818 203.512 15.6504 202.959 16.3878C202.406 17.1255 202.006 17.7555 201.76 18.3087C201.514 18.8619 201.146 19.7992 200.639 21.1511L186.9 57.8328H186.07L170.257 17.4639C169.857 16.3421 169.335 15.5117 168.705 14.9892C168.06 14.4668 166.692 13.9137 164.587 13.3759V13.0068H181.583V13.3759C179.416 14.0828 177.987 14.652 177.28 15.0822C176.573 15.5125 176.204 16.0804 176.204 16.8486C176.204 17.494 176.512 18.6169 177.157 20.2612L187.146 46.3689C187.561 47.46 189.113 47.46 189.512 46.3689L198.839 21.0896C199.485 19.3533 199.793 18.0629 199.762 17.2793C199.762 16.2804 199.362 15.4816 198.578 14.8977C197.779 14.3138 196.443 13.8068 194.553 13.3459V12.9767L207.83 13.0683ZM90.4555 13.3909C87.8278 14.2207 86.2132 15.0042 85.5678 15.7726C84.9223 16.5409 84.6163 18.2781 84.6163 20.998V53.5618C84.6167 54.2684 85.415 54.8673 86.9664 55.3896C88.5184 55.9121 90.7162 56.158 93.559 56.158H96.3098C98.4765 56.158 100.398 55.2982 102.104 53.5618C103.81 51.8253 105.162 49.7803 106.16 47.3984H106.498L105.008 57.6482H73.274V57.2805C75.9318 56.4509 77.5767 55.6671 78.1918 54.8989C78.8065 54.1306 79.1147 52.3934 79.1147 49.6735V20.998C79.1147 18.2781 78.8065 16.5409 78.1918 15.7726C77.5767 15.0044 75.9318 14.2206 73.274 13.3909V13.0233H90.4555V13.3909ZM155.612 13.3144C153.906 13.8676 152.554 14.6205 151.555 15.6345C150.541 16.6487 149.511 18.0475 148.435 19.8455L137.695 37.4562V49.6584C137.695 52.378 138.032 54.114 138.678 54.8824C139.323 55.6508 140.968 56.4342 143.595 57.264V57.6332H126.414V57.264C129.072 56.4342 130.718 55.6508 131.363 54.8824C132.008 54.1139 132.316 52.3776 132.316 49.6584V38.04L119.56 17.3558C119.161 16.6491 118.823 16.1568 118.562 15.8956C118.301 15.6344 117.762 15.2514 117.009 14.8211C116.241 14.3909 115.18 13.898 113.797 13.3909V13.0218H130.948V13.3909C128.996 14.1593 127.69 14.6969 127.044 15.0657C126.399 15.4345 126.061 15.8959 126.061 16.4644C126.061 17.033 126.491 17.9868 127.305 19.4313L136.018 33.9221C136.51 34.7364 137.694 34.7362 138.185 33.9221L146.622 19.8605C147.329 18.7081 147.668 17.6933 147.637 16.8636C147.636 15.312 146.238 14.1445 143.457 13.3609V12.9918L155.612 12.9602V13.3144ZM239.655 13.8982C236.244 13.6062 233.201 14.5592 230.465 16.772C227.73 18.9849 225.64 21.798 224.18 25.194C222.721 28.5899 221.814 32.2472 221.476 36.1656C220.954 42.0359 221.891 46.8307 224.288 50.5649C226.686 54.299 229.959 56.358 234.124 56.7268L234.092 56.6652C237.381 56.9572 240.362 56.0193 243.067 53.8679C245.771 51.7165 247.877 48.9666 249.368 45.5705C250.859 42.1744 251.796 38.516 252.134 34.5974C252.641 28.912 251.734 24.1485 249.445 20.2762C247.155 16.4037 243.881 14.267 239.655 13.8982ZM155.628 12.9602H155.612V12.9452L155.628 12.9602Z" fill="#B5705B"></path>
<path d="M25.5141 62.6891L24.3916 62.6741L25.2064 50.6564L25.8668 50.6114L25.5141 62.6891ZM26.9728 50.6564C27.1879 50.6564 27.5566 50.5344 27.6181 50.811L28.4945 61.7676L27.4035 62.3199L26.9728 50.6564ZM24.1154 50.856L22.6087 62.2749L21.6558 61.7211L23.4851 51.0871C23.5774 50.8108 23.9153 50.8718 24.1304 50.841L24.1154 50.856ZM20.1656 60.6916C19.9812 60.3076 19.4131 60.1846 19.4587 59.7087L21.6258 51.902C21.7333 51.5639 22.1175 51.487 22.3941 51.4563L20.1656 60.6916ZM28.7556 51.0256C29.063 51.0256 29.4786 51.0413 29.5555 51.3948L31.1988 59.6156C31.337 59.9536 30.1704 60.7681 30.0927 60.6766H30.1077L28.7556 51.0256ZM20.2571 52.6389C19.6271 54.2832 19.2288 56.3584 18.5373 57.9258C18.4759 58.0641 18.5671 58.14 18.3212 58.0939C17.922 57.0497 17.9994 56.8652 18.3527 55.8054C18.7215 54.6838 19.1665 53.0238 20.2571 52.6239V52.6389ZM31.0457 52.0101C31.0649 52.0197 31.8135 52.3944 31.9056 52.4858C32.1822 52.7624 33.1962 55.7439 33.2577 56.2511C33.319 56.8501 32.8904 57.2495 32.752 57.8178V57.8028L32.4894 57.6497L31.0457 52.0101ZM16.5084 48.8136C16.6927 49.1361 16.9692 49.5813 16.816 50.0111L12.7131 56.7118L12.7281 56.7268C12.7281 56.7268 12.0983 56.8803 12.2058 56.6037L16.5084 48.8136ZM17.814 53.8379C18.0138 53.9455 18.1831 53.9613 18.1216 54.2686C18.0898 54.425 17.446 56.1734 17.3998 56.2661C17.1849 56.5731 16.9083 56.1739 16.6779 56.173H16.6614C16.6051 56.0718 17.5202 54.1036 17.6294 53.946C17.6908 53.8692 17.7221 53.8075 17.814 53.8379ZM17.2617 51.3483C17.2925 51.9168 17.3681 52.3172 17.1837 52.9165C17.0894 53.1966 15.8162 55.5747 15.632 55.8204C15.4476 56.0661 15.1859 56.2192 14.9401 56.2346H14.9251L17.2617 51.3483ZM16.1707 48.3063L10.4845 56.0665L9.91577 56.0815L15.755 47.3534L16.1707 48.3063ZM41.219 55.8504H40.4356L35.6408 48.6125C35.3953 48.1208 35.8558 47.506 36.1631 47.0758L41.219 55.8504ZM33.5504 53.1461C33.7962 53.0539 34.0109 52.886 34.2107 53.1011C34.3187 53.2253 35.0099 54.8986 35.1021 55.1751C35.2403 55.5897 34.3659 55.8507 34.2422 55.6823C34.0885 55.4518 33.4431 53.269 33.5353 53.1461H33.5504ZM37.3922 55.4212L37.3771 55.4362C37.0391 55.4362 36.7009 55.2667 36.4857 55.0055C36.2701 54.7432 34.8713 52.1628 34.7944 51.8555C34.6256 51.2105 34.7953 50.7495 34.8875 50.0892L37.3922 55.4212ZM44.8762 54.7594H44.8612L43.9382 54.8059L36.6853 46.3854C36.5317 46.0935 37.193 45.4788 37.3621 45.1714L44.8762 54.7594ZM14.8171 46.2459C14.9554 46.1998 15.5855 46.861 15.2628 47.1223L8.45559 54.6828L8.271 54.3137L14.8171 46.2459ZM47.8566 52.2547L47.4724 52.7769L38.0375 44.7872C37.6841 44.4031 38.3603 43.9727 38.6678 43.6346H38.6828L47.8566 52.2547ZM13.6045 45.4775C13.9573 45.2483 14.0958 45.7548 14.4029 45.7701L14.4179 45.7551L14.2948 46.0313C12.2972 47.8752 10.4075 49.7965 8.50211 51.5944C8.30234 51.7788 7.65631 52.4543 7.50264 52.5158C7.27221 52.6233 7.22687 52.3467 7.21151 52.1316L13.6045 45.4775ZM12.2974 44.6941C12.6355 44.479 12.8819 44.9406 13.2353 44.9253H13.2203L6.9954 49.9811L7.07344 49.2743L12.2974 44.6941ZM40.281 42.2975C40.865 42.1438 48.5335 48.2447 49.809 48.8901C50.1465 49.1204 49.9477 49.4121 49.7174 49.6885L39.4976 43.2039C39.0827 43.0042 40.097 42.3436 40.266 42.2975H40.281ZM10.1304 44.325C10.4531 44.1559 11.115 44.1264 11.2994 44.403L11.3144 44.418L7.57918 46.8311L7.76376 46.1843L10.1304 44.325ZM41.2655 41.5292C41.7722 41.4366 42.2177 40.7756 42.7091 40.9289L50.7769 45.2329C50.8688 45.3719 50.8377 45.9844 50.7304 46.1843L41.2655 41.5292ZM9.45506 43.8958L9.37852 44.0023C9.08654 44.156 7.94817 45.1244 7.76376 45.0783C7.64122 45.0463 7.54973 44.5113 7.61069 44.403L9.332 43.4501L9.45506 43.8958ZM10.438 41.1285C10.2843 41.4512 10.0386 42.0058 9.79272 42.221C9.5909 42.4064 7.56379 43.5579 7.31806 43.6346C6.99567 43.7414 6.73445 43.327 6.39662 43.327L10.438 41.1135V41.1285ZM10.9918 39.7928L5.4902 42.2825C5.0753 42.4208 5.04386 41.8674 4.81338 41.6522L11.3549 39.047L10.9918 39.7928ZM46.0587 39.6698L50.0401 41.2981V41.3131C50.0401 41.3131 50.3002 41.943 50.1466 42.0814L44.2459 40.177C44.3534 39.9313 45.7657 39.5934 46.0587 39.6698ZM11.6671 37.8719L4.26112 40.3151C4.26112 40.1153 3.92262 39.454 4.2146 39.3771L11.8517 37.2266L11.6671 37.8719ZM50.7154 38.6088H50.7004L50.3928 39.5917C50.2392 39.73 47.9832 39.1164 47.735 38.993C47.3662 38.8086 47.5505 38.5627 47.6735 38.2246L50.7154 38.6088ZM11.3549 39.047L11.3595 39.0395H11.376L11.3549 39.047ZM12.0213 36.1807C9.24007 36.9182 6.56609 37.3332 4 37.9785L4.09154 36.919L12.0498 35.6749L12.0213 36.1807ZM52.9289 36.7959H52.9439C52.3139 36.9496 51.7601 37.6412 51.1761 37.6258C50.7894 37.6252 47.1805 36.8873 46.9501 36.7644C46.8401 36.6995 46.0439 35.7198 46.1052 35.6584L52.9289 36.7959ZM12.0213 34.5824L11.7436 34.737C9.37726 34.7064 6.70309 35.4891 4.56727 35.4123C4.47554 35.4128 4.4302 35.5197 4.46072 35.3057C4.50682 35.0445 4.67502 34.7671 4.75185 34.5059L4.87491 34.4143L11.9897 34.1067V34.0917L12.0213 34.5824ZM56.34 33.5529C55.9098 34.0293 55.6636 34.8443 54.8799 34.875L45.3984 34.1982L44.9062 33.4149L56.34 33.5529ZM11.8217 33.0157V33.0307L11.8142 33.0142L11.8217 33.0157ZM11.5605 32.4154L11.8142 33.0142L5.56673 32.8926C5.84318 32.5854 5.96613 32.0169 6.36511 32.0162L11.5605 32.4154ZM57.7387 31.3709C53.1286 31.709 48.7641 31.8169 44.615 32.0627L44.4004 31.3409L58.2144 29.9422L58.2309 29.9272L57.7387 31.3709ZM8.44058 29.9722C8.6717 29.9724 10.5283 30.3417 10.7141 30.4495C10.8217 30.5109 11.2832 31.1868 11.2064 31.2944L11.1914 31.2794L7.45762 30.6175C7.79542 30.4941 8.11812 29.9876 8.44058 29.9722ZM58.6751 27.7752L44.2924 30.0803V29.45C48.8254 28.3129 53.6197 27.4839 58.6751 26.27V27.7752ZM9.08588 28.497C9.50073 28.405 10.1459 28.9425 10.6376 28.8812L10.423 29.4035L8.74823 29.2039C8.85557 29.0344 8.90166 28.5431 9.08588 28.497ZM12.5585 27.7287C12.3127 28.082 11.6681 28.2818 11.376 28.2359C10.7461 28.1438 9.93149 27.3921 9.25546 27.2995L9.19394 26.7757L12.5585 27.7287ZM58.1844 24.3176L44.7996 28.0979C44.3693 28.2515 44.5379 27.4517 44.6916 27.3595L57.6772 23.1035L58.1844 24.3176ZM14.5409 26.315V26.33C14.5717 26.5605 14.4947 26.4994 14.4179 26.5761C14.2181 26.7606 13.7728 27.1449 13.573 27.0834L9.07088 24.6252L9.10089 23.9799L14.5409 26.315ZM54.8648 20.7984C55.6175 20.5374 55.8636 21.2281 56.2935 21.5203L45.0292 25.9158L45.5515 24.9629L54.8648 20.7984ZM10.0073 21.4587C10.1455 21.4587 10.6676 21.8579 10.8372 21.966C12.4354 22.9341 14.0189 24.0714 15.74 25.101L15.8135 25.3096C15.5167 25.4462 15.3178 25.9596 15.0017 25.8693L9.66966 21.921C9.71571 21.706 9.80797 21.4287 10.0073 21.4587ZM15.8165 25.3171L15.8135 25.3096C15.8196 25.3067 15.8254 25.303 15.8315 25.3005L15.8165 25.3171ZM11.2994 19.0621L16.846 23.6723C17.0765 23.9489 16.6151 24.2864 16.4153 24.5937L11.0068 19.5078L11.2994 19.0471V19.0621ZM17.8755 22.2586C17.9675 22.4738 17.4763 23.0419 17.3533 23.3031L12.8361 17.4939L13.1738 17.1712H13.3884L17.8755 22.2586ZM51.2542 19.5544C51.8225 19.3396 52.3599 19.7844 52.959 19.6924H52.974L46.2898 23.2731C46.1669 23.1963 47.0434 21.9812 47.2278 21.8429C47.5385 21.5799 50.8548 19.7079 51.2542 19.5544ZM18.7204 20.4143C18.8126 20.7677 18.4898 21.2745 18.2747 21.6433L15.1097 16.0802C15.0642 15.8501 15.494 15.8198 15.6169 15.7891L18.7204 20.4143ZM50.1932 17.9861C50.5158 17.848 50.7311 18.6015 50.6389 18.7245L48.0111 20.2447L47.765 20.1997L47.5954 19.799L50.1932 17.9861ZM50.2082 16.5575C49.1324 17.111 47.1345 19.1852 46.2433 19.5694C45.9965 19.6768 44.6947 19.8604 44.6 19.6924L50.3162 15.8191L50.2082 16.5575ZM50.9465 12.7607L43.1248 19.5544C42.6485 19.8617 42.248 19.4156 41.7562 19.5078L50.915 11.9323L50.9465 12.7607ZM49.7324 9.27303C50.1011 9.0428 50.2086 9.33486 50.2547 9.58068L41.1109 19.0156C40.6425 19.3328 40.427 18.8646 40.0109 18.8925L40.1429 18.5849C42.8012 16.0649 45.4446 13.3918 48.2257 10.7182C48.5331 10.4262 49.5019 9.42671 49.7324 9.27303ZM17.6459 15.4664C17.9377 15.3437 18.1529 15.4656 18.2912 15.6345C18.4756 15.865 19.3354 17.3719 19.4122 17.6485C19.5197 18.1247 19.3979 18.5094 19.3057 19.0471L17.6459 15.4664ZM40.0049 18.9076L39.9899 18.8925C39.9969 18.8918 40.004 18.893 40.0109 18.8925L40.0049 18.9076ZM47.7965 7.33713C47.9504 7.26096 48.3943 7.47476 48.3188 7.62826L39.283 18.4618L38.6978 18.0176L38.8058 17.6635L47.7965 7.33713ZM45.598 6.69182L38.1455 17.5554C37.9915 17.3403 37.4081 17.0181 37.5617 16.6955L44.9062 6.6453L45.598 6.69182ZM24.2685 17.1412C24.0074 17.2027 23.6537 17.2793 23.5767 17.0032L22.3326 10.8713C22.2251 10.687 23.1763 9.70456 23.224 9.74876L24.2685 17.1412ZM25.8668 17.0647C25.6671 17.1262 25.3448 17.2943 25.283 17.0647L24.6677 8.24355L25.5141 7.62826L25.8668 17.0647ZM27.5115 16.664L26.8812 16.8651L27.1889 6.70683L28.2184 6.32265L27.5115 16.664ZM22.3326 16.8186C22.3326 16.8186 21.7181 16.6652 21.6408 16.619C21.4564 16.4807 20.6721 14.3444 20.6413 14.0063C20.6106 13.745 20.8883 13.0842 21.042 12.7922C21.1033 12.6694 21.0417 12.6233 21.2566 12.5926H21.2716L22.3326 16.8186ZM19.8895 14.62L20.3652 16.4194H20.3802C20.196 16.5423 20.0111 16.7256 19.8729 16.5875C19.7947 16.5065 19.3205 15.3728 19.2592 15.1888C19.1829 14.9126 19.5505 14.7896 19.7349 14.59L19.8895 14.62ZM29.2163 15.8806C29.1242 16.157 28.7874 16.1885 28.5875 16.2498L29.7851 6.22961C29.9084 5.84647 30.5379 6.13768 30.8146 6L29.2163 15.8806ZM37.116 16.2498C36.8548 15.9578 36.4541 15.5732 36.7153 15.0507L41.5716 7.09101L42.2739 6.83589L37.116 16.2498ZM32.4744 6.41419C32.6741 6.67544 33.3038 6.56919 33.2577 6.99947L31.1222 14.6666C31.0147 15.0046 30.6155 15.1743 30.3388 15.2819H30.3238L32.4744 6.41419ZM38.6978 8.47316L36.055 13.9747C35.9935 13.4372 35.8868 13.0832 36.0865 12.438C36.211 12.0668 37.6523 9.42909 37.9144 9.05843C38.1294 8.76661 38.36 8.55044 38.6978 8.45815V8.47316ZM34.5498 8.01244C34.6267 8.42736 35.0416 8.70475 34.934 9.1965C34.8569 9.59655 33.6431 12.6083 33.3973 12.9002C33.3051 13.0078 32.6124 13.6532 32.5509 13.6071C33.1809 11.9167 33.5815 9.88816 34.3037 8.22854C34.3652 8.07487 34.2578 8.04354 34.5498 7.99744V8.01244ZM35.5478 11.7012C35.2558 11.7933 34.81 11.8541 34.9175 11.4701C35.0866 10.8554 35.5322 10.0099 35.6859 9.36458L35.902 9.1965H36.5563L35.5478 11.7012ZM36.5623 9.1965H36.5563L36.5623 9.18149V9.1965ZM42.2739 6.83589L42.2784 6.82989H42.295L42.2739 6.83589Z" fill="#B5705B"></path>
</svg>