<svg width="139" height="139" viewBox="0 0 139 139" fill="none" xmlns="http://www.w3.org/2000/svg">
<path d="M16.1563 96.8398C16.2632 97.0448 16.3131 97.2654 16.306 97.5018C16.299 97.7382 16.2362 97.9571 16.1178 98.1585C15.9883 98.3564 15.8064 98.5164 15.5722 98.6385C15.3453 98.7568 15.1173 98.8105 14.8883 98.7996C14.648 98.7853 14.429 98.7133 14.2311 98.5838C14.0333 98.4542 13.8809 98.287 13.774 98.0821C13.6595 97.8625 13.6077 97.6382 13.6186 97.4091C13.6257 97.1727 13.694 96.9556 13.8235 96.7577C13.9419 96.5563 14.1145 96.3965 14.3414 96.2781C14.5756 96.156 14.8128 96.1022 15.0531 96.1165C15.2821 96.1274 15.4956 96.1976 15.6935 96.3271C15.8876 96.4494 16.0418 96.6203 16.1563 96.8398Z" fill="#EDE4D7" fill-opacity="0.58"/>
<path d="M28.9761 110.498L22.5006 116.259L21.6777 115.334L27.3484 110.289L24.2296 106.783L25.0344 106.067L28.9761 110.498Z" fill="#EDE4D7" fill-opacity="0.58"/>
<path d="M39.8667 118.971L31.5322 123.56L30.5508 122.826L32.59 113.527L33.6309 114.306L31.6601 122.79L31.2635 122.493L38.8456 118.207L39.8667 118.971ZM37.2304 119.705L36.3694 120.298L32.4633 117.376L32.7692 116.367L37.2304 119.705Z" fill="#EDE4D7" fill-opacity="0.58"/>
<path d="M50.9983 123.892L47.4921 131.818L46.5636 131.407L44.2013 122.578L44.6882 122.793L41.8081 129.304L40.6758 128.803L44.182 120.877L45.1105 121.288L47.4728 130.117L46.9859 129.902L49.866 123.391L50.9983 123.892Z" fill="#EDE4D7" fill-opacity="0.58"/>
<path d="M60.686 125.847C61.3359 125.964 61.9214 126.183 62.4424 126.503C62.9553 126.822 63.3798 127.213 63.7157 127.676C64.0503 128.147 64.2837 128.667 64.4161 129.236C64.5485 129.805 64.5584 130.403 64.4458 131.028C64.3332 131.654 64.1157 132.21 63.7932 132.697C63.4706 133.184 63.0712 133.586 62.5948 133.903C62.117 134.228 61.5821 134.45 60.9903 134.57C60.3984 134.69 59.7734 134.691 59.1154 134.572C58.4655 134.455 57.8882 134.238 57.3834 133.921C56.869 133.61 56.4446 133.219 56.1101 132.748C55.766 132.283 55.5318 131.767 55.4075 131.2C55.2751 130.631 55.2659 130.03 55.38 129.396C55.494 128.762 55.7123 128.202 56.0348 127.715C56.3492 127.226 56.7494 126.82 57.2354 126.497C57.7117 126.18 58.2459 125.962 58.8377 125.842C59.42 125.729 60.0361 125.73 60.686 125.847ZM60.4908 126.932C60.0196 126.847 59.5704 126.85 59.1431 126.941C58.7077 127.03 58.3174 127.195 57.9723 127.435C57.6176 127.681 57.3232 127.989 57.0891 128.358C56.8469 128.725 56.6833 129.144 56.5985 129.615C56.5137 130.087 56.5207 130.536 56.6197 130.965C56.7105 131.393 56.8799 131.779 57.1278 132.126C57.3661 132.479 57.6738 132.774 58.0507 133.009C58.4195 133.243 58.8395 133.403 59.3106 133.488C59.7899 133.574 60.2473 133.572 60.6827 133.483C61.11 133.392 61.501 133.224 61.8557 132.977C62.2089 132.739 62.5066 132.436 62.7489 132.069C62.983 131.7 63.1425 131.28 63.2273 130.809C63.3121 130.337 63.3091 129.888 63.2183 129.461C63.1194 129.032 62.9467 128.64 62.7002 128.286C62.4523 127.939 62.1439 127.649 61.7751 127.415C61.3982 127.179 60.9701 127.018 60.4908 126.932Z" fill="#EDE4D7" fill-opacity="0.58"/>
<path d="M71.7928 126.842L71.8313 135.509L70.5932 135.514L70.5547 126.847L71.7928 126.842Z" fill="#EDE4D7" fill-opacity="0.58"/>
<path d="M80.1789 125.492C80.8293 125.378 81.4494 125.378 82.0394 125.492C82.6226 125.616 83.1517 125.837 83.6266 126.156C84.0949 126.485 84.4892 126.893 84.8095 127.382C85.1299 127.87 85.3457 128.432 85.457 129.066C85.5682 129.7 85.5564 130.301 85.4215 130.87C85.2866 131.438 85.0501 131.953 84.7121 132.415C84.3755 132.884 83.9534 133.273 83.4457 133.579C82.9314 133.896 82.3491 134.111 81.6987 134.225C81.0401 134.341 80.4145 134.333 79.8217 134.203C79.2222 134.082 78.6889 133.836 78.2216 133.465L78.8795 132.558C79.2646 132.842 79.6746 133.03 80.1097 133.121C80.5461 133.221 80.9961 133.23 81.4595 133.149C81.9391 133.064 82.372 132.905 82.7581 132.669C83.1361 132.435 83.4498 132.146 83.6992 131.8C83.9487 131.455 84.1231 131.064 84.2225 130.627C84.3152 130.201 84.3202 129.751 84.2375 129.28C84.1548 128.808 83.9964 128.384 83.7625 128.006C83.5219 127.637 83.2255 127.333 82.8733 127.093C82.5212 126.853 82.1276 126.688 81.6926 126.596C81.2494 126.506 80.788 126.504 80.3083 126.588C79.8449 126.669 79.4242 126.827 79.0463 127.061C78.6697 127.303 78.3495 127.627 78.0857 128.034L77.1582 127.404C77.4714 126.897 77.8885 126.48 78.4096 126.154C78.9224 125.83 79.5122 125.609 80.1789 125.492Z" fill="#EDE4D7" fill-opacity="0.58"/>
<path d="M90.935 122.672L93.8606 130.83L92.6952 131.248L89.7695 123.09L90.935 122.672Z" fill="#EDE4D7" fill-opacity="0.58"/>
<path d="M101.837 116.723L106.125 124.255L103.188 125.927C102.528 126.303 101.905 126.519 101.321 126.577C100.736 126.634 100.206 126.537 99.7303 126.286C99.2546 126.034 98.8616 125.636 98.5512 125.09C98.2409 124.545 98.0989 124.004 98.1254 123.467C98.1559 122.936 98.3451 122.434 98.6929 121.961C99.0408 121.487 99.5447 121.063 100.205 120.687L102.55 119.352L102.348 120.122L100.761 117.336L101.837 116.723ZM96.8017 119.59L100.273 121.233L99.1215 121.888L95.6289 120.258L96.8017 119.59ZM102.287 120.015L103.071 120.266L100.758 121.583C100.069 121.975 99.6326 122.419 99.4485 122.913C99.2614 123.418 99.3209 123.94 99.6272 124.478C99.9335 125.016 100.35 125.33 100.876 125.42C101.395 125.514 101.998 125.365 102.687 124.973L105 123.656L104.822 124.469L102.287 120.015Z" fill="#EDE4D7" fill-opacity="0.58"/>
<path d="M108.765 111.02L113.756 116.738L115.995 114.784L116.703 115.596L111.302 120.31L110.594 119.498L112.832 117.544L107.842 111.826L108.765 111.02Z" fill="#EDE4D7" fill-opacity="0.58"/>
<path d="M115.903 102.452C116.591 101.544 117.392 101.027 118.306 100.901C119.219 100.775 120.176 101.091 121.176 101.849L125.104 104.825L124.356 105.811L120.468 102.865C119.698 102.282 119.008 102.024 118.399 102.09C117.784 102.163 117.243 102.509 116.774 103.127C116.301 103.752 116.114 104.367 116.215 104.972C116.312 105.583 116.744 106.18 117.514 106.763L121.402 109.709L120.677 110.667L116.749 107.691C115.749 106.933 115.186 106.097 115.061 105.184C114.93 104.277 115.211 103.366 115.903 102.452Z" fill="#EDE4D7" fill-opacity="0.58"/>
<path d="M123.882 87.4805L131.802 90.9998L131.39 91.9276L122.556 94.2753L122.773 93.7888L129.278 96.6797L128.776 97.8111L120.855 94.2918L121.268 93.364L130.101 91.0163L129.885 91.5028L123.379 88.6119L123.882 87.4805Z" fill="#EDE4D7" fill-opacity="0.58"/>
<path d="M126.929 67.2095L135.285 71.7582L135.195 72.9807L126.264 76.2729L126.359 74.9763L134.567 72.0655L134.531 72.5595L126.836 68.4813L126.929 67.2095ZM128.967 69.0351L129.931 69.441L129.574 74.306L128.56 74.5916L128.967 69.0351Z" fill="#EDE4D7" fill-opacity="0.58"/>
<path d="M124.637 53.4655L133.186 52.041L133.353 53.0425L127.531 57.9538L127.441 57.4164L134.533 60.1259L134.7 61.1273L126.153 62.564L125.957 61.3916L132.66 60.2622L132.707 60.5431L126.479 58.1166L126.385 57.5548L131.486 53.2154L131.537 53.5207L124.832 54.6379L124.637 53.4655Z" fill="#EDE4D7" fill-opacity="0.58"/>
<path d="M125.316 41.684L127.059 45.7863L126.09 46.1979L124.347 42.0956L125.316 41.684ZM121.815 43.2924L123.791 47.9417L122.8 48.3629L120.34 42.5742L128.316 39.1848L130.708 44.814L129.717 45.2353L127.809 40.7456L121.815 43.2924Z" fill="#EDE4D7" fill-opacity="0.58"/>
<path d="M115.51 35.0076L121.791 30.7472L120.123 28.288L121.014 27.6833L125.038 33.616L124.147 34.2207L122.479 31.7615L116.198 36.022L115.51 35.0076Z" fill="#EDE4D7" fill-opacity="0.58"/>
<path d="M108.662 27.4851C108.196 27.0176 107.82 26.5007 107.535 25.9343C107.255 25.362 107.107 24.8395 107.09 24.3667L108.097 24.0088C108.126 24.4466 108.254 24.9136 108.481 25.41C108.708 25.9063 109.017 26.3502 109.407 26.7417C109.763 27.0981 110.092 27.3465 110.396 27.4869C110.699 27.6273 110.973 27.6801 111.219 27.6454C111.47 27.6048 111.686 27.4941 111.867 27.3134C112.077 27.1035 112.177 26.8643 112.165 26.5958C112.16 26.3332 112.084 26.0529 111.939 25.7551C111.805 25.4573 111.636 25.1478 111.432 24.8266C111.228 24.5053 111.03 24.1724 110.837 23.8279C110.657 23.4833 110.517 23.1388 110.418 22.7944C110.325 22.4557 110.314 22.1172 110.384 21.7788C110.461 21.4345 110.662 21.0991 110.99 20.7726C111.305 20.4578 111.676 20.251 112.102 20.1522C112.54 20.0535 113.01 20.0977 113.511 20.285C114.025 20.4724 114.55 20.8348 115.086 21.3723C115.442 21.7287 115.748 22.1289 116.004 22.5727C116.26 23.0166 116.429 23.4545 116.511 23.8865L115.521 24.2969C115.434 23.8591 115.282 23.4562 115.067 23.0882C114.857 22.7145 114.615 22.3903 114.341 22.1157C113.997 21.771 113.671 21.5313 113.361 21.3967C113.052 21.2622 112.772 21.2152 112.521 21.2558C112.276 21.3022 112.063 21.4158 111.882 21.5965C111.666 21.8122 111.56 22.0514 111.566 22.3141C111.577 22.5826 111.653 22.8628 111.792 23.1548C111.938 23.4526 112.11 23.765 112.308 24.0921C112.512 24.4133 112.707 24.7433 112.894 25.082C113.086 25.4266 113.228 25.7682 113.321 26.1068C113.42 26.4512 113.434 26.7927 113.364 27.1311C113.294 27.4696 113.098 27.7991 112.776 28.1198C112.467 28.4288 112.093 28.6327 111.655 28.7315C111.223 28.8244 110.748 28.7743 110.228 28.5811C109.721 28.3879 109.199 28.0226 108.662 27.4851Z" fill="#EDE4D7" fill-opacity="0.58"/>
<path d="M101.176 21.1912L106.259 14.1716L107.262 14.8978L102.179 21.9174L101.176 21.1912Z" fill="#EDE4D7" fill-opacity="0.58"/>
<path d="M93.5558 17.2138C92.9667 16.9155 92.4482 16.5419 92.0001 16.0929C91.5558 15.6366 91.2517 15.1865 91.0879 14.7427L91.9329 14.0881C92.0969 14.495 92.3643 14.8988 92.7351 15.2993C93.1059 15.6999 93.5379 16.0251 94.0313 16.275C94.4805 16.5024 94.8711 16.6355 95.2031 16.6741C95.5352 16.7127 95.8122 16.6772 96.0342 16.5676C96.26 16.4507 96.4307 16.278 96.5463 16.0498C96.6806 15.7847 96.7003 15.5264 96.6057 15.2749C96.5183 15.0271 96.359 14.7845 96.1277 14.5471C95.9074 14.306 95.6502 14.0647 95.3562 13.8233C95.0621 13.5818 94.7699 13.3275 94.4797 13.0602C94.2005 12.7893 93.9602 12.5057 93.7587 12.2093C93.5645 11.9167 93.448 11.5987 93.4092 11.2552C93.3741 10.9043 93.4609 10.5227 93.6698 10.1103C93.8712 9.71268 94.1588 9.40039 94.5328 9.17344C94.9179 8.94286 95.378 8.83817 95.9132 8.85937C96.4594 8.87693 97.0713 9.05726 97.7487 9.40034C98.1979 9.62782 98.6136 9.91234 98.9957 10.2539C99.3779 10.5955 99.675 10.9588 99.8872 11.3438L99.0752 12.0428C98.8557 11.6541 98.5861 11.3186 98.2664 11.0364C97.9504 10.7469 97.6194 10.5145 97.2733 10.3392C96.8388 10.1192 96.4537 9.99355 96.1179 9.9623C95.7822 9.93105 95.5014 9.9739 95.2756 10.0909C95.0572 10.2116 94.8902 10.3861 94.7746 10.6143C94.6366 10.8868 94.6113 11.1469 94.6986 11.3947C94.7933 11.6462 94.9527 11.8888 95.1766 12.1225C95.408 12.3599 95.6688 12.603 95.9592 12.8519C96.2532 13.0933 96.5417 13.3458 96.8246 13.6093C97.1149 13.8766 97.357 14.1565 97.5512 14.4492C97.7527 14.7455 97.8729 15.0654 97.9117 15.4089C97.9506 15.7524 97.8674 16.1267 97.6623 16.5317C97.4647 16.922 97.1733 17.2324 96.7882 17.463C96.4069 17.6862 95.9394 17.7872 95.3858 17.7659C94.8433 17.7409 94.2333 17.5569 93.5558 17.2138Z" fill="#EDE4D7" fill-opacity="0.58"/>
<path d="M83.1234 13.5116C82.4878 13.3327 81.9068 13.0662 81.3805 12.7123C80.8564 12.3504 80.4711 11.9675 80.2246 11.5637L80.9272 10.7583C81.1668 11.1258 81.5071 11.4703 81.9483 11.7917C82.3895 12.1131 82.8762 12.3487 83.4086 12.4985C83.8932 12.635 84.3022 12.6901 84.6354 12.6638C84.9687 12.6376 85.2336 12.5492 85.4303 12.3988C85.6292 12.2404 85.7634 12.0381 85.8327 11.7918C85.9132 11.5057 85.8827 11.2485 85.7412 11.02C85.6077 10.7938 85.4045 10.5865 85.1317 10.3982C84.869 10.2043 84.5701 10.0172 84.2349 9.83712C83.8997 9.65703 83.5639 9.4639 83.2275 9.25773C82.9013 9.04585 82.6107 8.814 82.3557 8.56216C82.1087 8.31256 81.933 8.02299 81.8285 7.69347C81.7263 7.35599 81.7378 6.96479 81.863 6.51985C81.9838 6.0908 82.2057 5.72882 82.5288 5.4339C82.8621 5.13327 83.2934 4.94167 83.8225 4.85909C84.3619 4.77081 84.997 4.82955 85.728 5.0353C86.2127 5.17173 86.6755 5.3706 87.1164 5.63191C87.5573 5.89323 87.9191 6.19226 88.2016 6.52903L87.5399 7.37177C87.2494 7.03277 86.9201 6.75571 86.5519 6.54059C86.186 6.31754 85.8163 6.15345 85.4428 6.04834C84.9741 5.91638 84.572 5.86751 84.2365 5.9017C83.901 5.93589 83.6338 6.03218 83.4349 6.19056C83.2439 6.35117 83.1137 6.55463 83.0444 6.80094C82.9617 7.09492 82.9871 7.35502 83.1206 7.58126C83.2621 7.80973 83.4653 8.01699 83.7302 8.20303C84.003 8.3913 84.3059 8.57946 84.6389 8.7675C84.974 8.94759 85.3059 9.13961 85.6343 9.34354C85.9707 9.54971 86.2625 9.77759 86.5095 10.0272C86.7644 10.279 86.9441 10.5697 87.0486 10.8992C87.1531 11.2288 87.1438 11.612 87.0208 12.049C86.9023 12.4701 86.6763 12.831 86.3431 13.1316C86.012 13.4243 85.5728 13.6137 85.0255 13.6997C84.4884 13.78 83.8544 13.7173 83.1234 13.5116Z" fill="#EDE4D7" fill-opacity="0.58"/>
<path d="M70.8589 11.9765C70.1996 11.938 69.5922 11.791 69.0367 11.5353C68.4893 11.2801 68.0212 10.9428 67.6323 10.5232C67.2438 10.0954 66.9499 9.60694 66.7504 9.05787C66.5509 8.5088 66.4697 7.91702 66.5067 7.28253C66.5438 6.64805 66.6933 6.06973 66.9552 5.54759C67.2172 5.02545 67.5658 4.57864 68.0008 4.20716C68.4364 3.82743 68.9409 3.54268 69.5142 3.3529C70.0875 3.16311 70.7079 3.0877 71.3753 3.12665C72.0345 3.16512 72.6337 3.3117 73.1728 3.5664C73.7206 3.81334 74.1887 4.15072 74.5772 4.57853C74.9743 4.99857 75.2685 5.48289 75.4597 6.03148C75.6592 6.58055 75.7402 7.17645 75.7027 7.81918C75.6652 8.46191 75.5154 9.04434 75.2535 9.56648C74.9997 10.0891 74.6509 10.54 74.2071 10.9193C73.7721 11.2908 73.2679 11.5714 72.6945 11.7612C72.13 11.9432 71.5181 12.015 70.8589 11.9765ZM70.923 10.8765C71.401 10.9043 71.8466 10.8477 72.26 10.7064C72.6816 10.5657 73.0494 10.3556 73.3634 10.0763C73.686 9.7892 73.9416 9.44858 74.1299 9.05444C74.3265 8.66077 74.4388 8.22497 74.4667 7.74705C74.4946 7.26912 74.4338 6.82323 74.2843 6.40937C74.143 5.99598 73.9286 5.63208 73.6411 5.31764C73.3622 4.99545 73.0216 4.73993 72.6192 4.55108C72.2251 4.36272 71.789 4.25459 71.3111 4.2267C70.8249 4.19833 70.371 4.25452 69.9494 4.39528C69.536 4.53652 69.168 4.75069 68.8453 5.03778C68.5231 5.31663 68.2637 5.65289 68.0671 6.04656C67.8788 6.4407 67.7706 6.87674 67.7428 7.35466C67.7149 7.83259 67.7715 8.27824 67.9128 8.69163C68.0623 9.10549 68.2805 9.47376 68.5676 9.79643C68.8552 10.1109 69.1961 10.3623 69.5902 10.5506C69.9926 10.7395 70.4369 10.8481 70.923 10.8765Z" fill="#EDE4D7" fill-opacity="0.58"/>
<path d="M58.7415 12.8399C58.0903 12.9495 57.4702 12.9452 56.8811 12.8268C56.2987 12.6989 55.7711 12.4739 55.2983 12.1518C54.8323 11.8201 54.4408 11.409 54.1238 10.9183C53.8067 10.4276 53.5947 9.86485 53.4878 9.22997C53.3808 8.59509 53.3968 7.99393 53.5355 7.42647C53.6743 6.85902 53.9143 6.34567 54.2554 5.88642C54.5952 5.41903 55.02 5.03358 55.5297 4.73009C56.0461 4.41709 56.6299 4.20574 57.2811 4.09605C57.9404 3.98499 58.566 3.99679 59.1578 4.13145C59.7565 4.25661 60.2882 4.50604 60.7529 4.87975L60.0889 5.78262C59.7057 5.49561 59.2969 5.30499 58.8625 5.21076C58.4268 5.10839 57.9769 5.09628 57.513 5.17444C57.0327 5.25533 56.5988 5.41214 56.2111 5.64486C55.8315 5.87621 55.5159 6.16375 55.2641 6.50751C55.0123 6.85126 54.8352 7.24102 54.7328 7.67678C54.6372 8.10304 54.6292 8.55221 54.7087 9.0243C54.7882 9.49638 54.9437 9.9222 55.175 10.3017C55.4131 10.6718 55.7074 10.978 56.058 11.2202C56.4085 11.4625 56.8009 11.6308 57.2353 11.725C57.6779 11.8179 58.1393 11.8239 58.6195 11.743C59.0834 11.6648 59.5052 11.51 59.8847 11.2787C60.2629 11.0392 60.5853 10.7171 60.8519 10.3122L61.7751 10.9477C61.4584 11.453 61.0385 11.867 60.5153 12.1895C60.0002 12.5106 59.4089 12.7274 58.7415 12.8399Z" fill="#EDE4D7" fill-opacity="0.58"/>
<path d="M43.1627 12.425L47.3099 10.7915L47.6955 11.7707L43.5484 13.4042L43.1627 12.425ZM44.6776 15.9668L49.3776 14.1155L49.7724 15.1177L43.9203 17.4228L40.7441 9.35893L46.4349 7.11743L46.8297 8.11965L42.2909 9.9074L44.6776 15.9668Z" fill="#EDE4D7" fill-opacity="0.58"/>
<path d="M31.2141 23.1123C31.0318 23.2544 30.8238 23.3434 30.59 23.3791C30.3563 23.4149 30.1296 23.3927 29.9102 23.3126C29.6922 23.221 29.5019 23.071 29.3395 22.8627C29.1822 22.6609 29.0882 22.4464 29.0575 22.2191C29.0282 21.9802 29.0594 21.7518 29.1511 21.5338C29.2428 21.3158 29.3798 21.1357 29.562 20.9936C29.7573 20.8413 29.9686 20.7498 30.1958 20.7192C30.4296 20.6834 30.6555 20.7113 30.8735 20.803C31.093 20.8831 31.2814 21.024 31.4387 21.2258C31.6012 21.4341 31.697 21.6577 31.7262 21.8966C31.7569 22.1238 31.7264 22.3465 31.6348 22.5645C31.5496 22.7774 31.4094 22.96 31.2141 23.1123Z" fill="#EDE4D7" fill-opacity="0.58"/>
<path d="M21.694 37.1049C21.2877 37.6667 20.8248 38.1519 20.3052 38.5605C19.7789 38.9642 19.2817 39.2362 18.8136 39.3764L17.9887 37.9395C18.4204 37.7933 18.854 37.567 19.2895 37.2606C19.7231 36.9427 20.0923 36.573 20.3971 36.1516C20.6292 35.8306 20.7854 35.5513 20.8655 35.3138C20.9437 35.0648 20.9598 34.8524 20.9138 34.6765C20.8678 34.5006 20.7713 34.3595 20.6241 34.2531C20.4369 34.1177 20.2365 34.0848 20.0231 34.1546C19.803 34.2195 19.5724 34.3481 19.3314 34.5405C19.0837 34.7281 18.8233 34.9473 18.5503 35.198C18.2754 35.4373 17.9847 35.6702 17.6783 35.8967C17.3766 36.1166 17.0652 36.2937 16.7439 36.4281C16.4226 36.5624 16.086 36.6195 15.734 36.5992C15.3868 36.5722 15.0259 36.4232 14.6513 36.1524C14.2501 35.8622 13.9629 35.4915 13.79 35.0405C13.6152 34.5779 13.588 34.0591 13.7085 33.4841C13.8271 32.8976 14.1258 32.2732 14.6047 31.6111C14.9239 31.1697 15.2918 30.7736 15.7084 30.423C16.1183 30.0675 16.5454 29.8008 16.9898 29.623L17.861 31.0171C17.4367 31.2094 17.0626 31.438 16.7386 31.7028C16.408 31.9628 16.129 32.25 15.9016 32.5643C15.6743 32.8787 15.5249 33.1628 15.4533 33.4167C15.3818 33.6705 15.3748 33.8844 15.4323 34.0585C15.4831 34.2276 15.5854 34.3679 15.7392 34.4791C15.9198 34.6097 16.1202 34.6425 16.3403 34.5776C16.5537 34.5079 16.7809 34.3768 17.022 34.1844C17.263 33.992 17.5209 33.7762 17.7958 33.5369C18.0755 33.291 18.3628 33.0557 18.6578 32.831C18.9576 32.5996 19.2681 32.4167 19.5894 32.2824C19.9106 32.148 20.2449 32.0943 20.5921 32.1213C20.9441 32.1416 21.304 32.2848 21.6719 32.5508C22.0665 32.8362 22.3479 33.2077 22.516 33.6655C22.6841 34.1232 22.7088 34.6453 22.5902 35.2319C22.4765 35.8117 22.1777 36.4361 21.694 37.1049Z" fill="#EDE4D7" fill-opacity="0.58"/>
<path d="M16.016 48.1501C15.7447 48.7791 15.3906 49.3186 14.9539 49.7684C14.5204 50.2107 14.0329 50.5488 13.4916 50.7827C12.9535 51.009 12.3869 51.1242 11.7919 51.1282C11.2001 51.1247 10.6087 50.9954 10.0175 50.7404C9.42631 50.4854 8.92639 50.1439 8.51771 49.7159C8.1123 49.2804 7.80891 48.7854 7.60753 48.2311C7.40616 47.6768 7.31758 47.0903 7.34179 46.4715C7.366 45.8526 7.51215 45.2325 7.78022 44.611C8.05157 43.982 8.40235 43.4501 8.83256 43.0154C9.26605 42.5731 9.75184 42.2388 10.2899 42.0125C10.8313 41.7786 11.3995 41.6596 11.9946 41.6556C12.582 41.6483 13.1751 41.7738 13.7738 42.032C14.365 42.287 14.8671 42.634 15.2801 43.0728C15.6855 43.5084 15.9889 44.0033 16.1903 44.5576C16.3873 45.1011 16.4738 45.6822 16.4495 46.301C16.4286 46.9122 16.2841 47.5286 16.016 48.1501ZM14.4422 47.4847C14.5959 47.1285 14.6758 46.7764 14.6821 46.4285C14.6916 46.0731 14.6317 45.7326 14.5024 45.4071C14.3731 45.0817 14.1792 44.7913 13.9208 44.536C13.6656 44.2731 13.3486 44.06 12.9696 43.8965C12.5907 43.733 12.218 43.6487 11.8517 43.6435C11.4887 43.6307 11.1444 43.689 10.819 43.8183C10.4968 43.94 10.2097 44.1263 9.95763 44.3771C9.70559 44.628 9.50275 44.9315 9.34909 45.2878C9.19544 45.644 9.11386 45.9998 9.10435 46.3553C9.09812 46.7032 9.15965 47.0398 9.28894 47.3653C9.41824 47.6907 9.61047 47.9849 9.86563 48.2478C10.1241 48.5031 10.4428 48.7125 10.8217 48.8759C11.1931 49.0361 11.5641 49.1243 11.9347 49.1403C12.301 49.1455 12.6453 49.0872 12.9675 48.9655C13.2929 48.8362 13.5817 48.6461 13.8337 48.3953C14.0857 48.1444 14.2886 47.8409 14.4422 47.4847Z" fill="#EDE4D7" fill-opacity="0.58"/>
<path d="M12.2577 61.5222L3.06641 63.6703L3.44944 61.5377L11.5827 59.6776L11.3573 60.9328L4.38843 56.3099L4.74083 54.3479L12.6079 59.5725L12.2577 61.5222Z" fill="#EDE4D7" fill-opacity="0.58"/>
<path d="M11.8428 73.4067L8.30311 73.5029L9.50357 73.012L3.27036 76.9963L3.2125 74.8675L7.99712 71.8144L8.03042 73.0397L3.08669 70.2386L3.0332 68.2708L9.47363 71.9105L8.24861 71.4979L11.7883 71.4017L11.8428 73.4067Z" fill="#EDE4D7" fill-opacity="0.58"/>
<path d="M13.8325 85.3876L5.36162 87.2202L4.9375 85.2598L11.811 83.7728L10.8921 79.5253L12.4894 79.1797L13.8325 85.3876Z" fill="#EDE4D7" fill-opacity="0.58"/>
</svg>
