<svg width="80" height="80" viewBox="0 0 80 80" fill="none" xmlns="http://www.w3.org/2000/svg">
<path d="M32.1792 75.4821L30.7664 75.4632L31.792 60.3377L32.6231 60.2811L32.1792 75.4821ZM34.0151 60.3377C34.2859 60.3377 34.75 60.1842 34.8273 60.5323L35.9304 74.3223L34.5572 75.0174L34.0151 60.3377ZM30.4189 60.589L28.5225 74.9608L27.3232 74.2638L29.6256 60.8798C29.7418 60.532 30.1671 60.6087 30.4378 60.5701L30.4189 60.589ZM25.4476 72.9681C25.2156 72.4847 24.5005 72.3299 24.558 71.7309L27.2854 61.9054C27.4208 61.4799 27.9043 61.3832 28.2524 61.3445L25.4476 72.9681ZM36.259 60.8024C36.6458 60.8024 37.169 60.8222 37.2657 61.267L39.334 71.6138C39.508 72.0392 38.0397 73.0643 37.9419 72.9492H37.9608L36.259 60.8024ZM25.5628 62.8328C24.7698 64.9023 24.2686 67.5142 23.3983 69.487C23.3209 69.6611 23.4357 69.7566 23.1263 69.6986C22.6238 68.3843 22.7213 68.1521 23.1659 66.8182C23.63 65.4065 24.1901 63.3173 25.5628 62.8139V62.8328ZM39.1413 62.0414C39.1655 62.0535 40.1077 62.5251 40.2236 62.6402C40.5717 62.9883 41.848 66.7409 41.9254 67.3792C42.0025 68.1331 41.4631 68.6358 41.2889 69.351V69.3322L40.9583 69.1395L39.1413 62.0414ZM20.8446 58.0183C21.0766 58.4243 21.4247 58.9846 21.2318 59.5256L16.0679 67.959L16.0868 67.9779C16.0868 67.9779 15.2941 68.1712 15.4295 67.823L20.8446 58.0183ZM22.4879 64.342C22.7393 64.4774 22.9524 64.4972 22.8751 64.8841C22.8351 65.0808 22.0248 67.2814 21.9666 67.398C21.6961 67.7845 21.348 67.282 21.0581 67.2809H21.0373C20.9663 67.1536 22.1181 64.6763 22.2555 64.478C22.3328 64.3814 22.3722 64.3037 22.4879 64.342ZM21.7928 61.2085C21.8315 61.9241 21.9267 62.428 21.6946 63.1823C21.576 63.5348 19.9735 66.5279 19.7416 66.8371C19.5095 67.1464 19.1802 67.339 18.8708 67.3584H18.8519L21.7928 61.2085ZM20.4196 57.3799L13.263 67.1468L12.5472 67.1657L19.8964 56.1805L20.4196 57.3799ZM51.9454 66.8748H50.9595L44.9248 57.7652C44.6157 57.1464 45.1953 56.3726 45.5821 55.8311L51.9454 66.8748ZM42.2937 63.4712C42.6031 63.3552 42.8734 63.1438 43.1248 63.4146C43.2607 63.5709 44.1307 65.6769 44.2467 66.0249C44.4207 66.5468 43.3202 66.8753 43.1644 66.6633C42.971 66.3732 42.1588 63.626 42.2748 63.4712H42.2937ZM47.129 66.3347L47.1101 66.3535C46.6846 66.3535 46.2589 66.1403 45.9882 65.8115C45.7168 65.4814 43.9562 62.2336 43.8595 61.8469C43.647 61.0351 43.8606 60.4548 43.9766 59.6238L47.129 66.3347ZM56.5484 65.5017H56.5295L55.3679 65.5602L46.2394 54.9623C46.046 54.5948 46.8783 53.8211 47.0912 53.4342L56.5484 65.5017ZM18.716 54.7866C18.89 54.7286 19.6831 55.5608 19.2769 55.8896L10.7094 65.4054L10.4771 64.9407L18.716 54.7866ZM60.2995 62.3493L59.816 63.0066L47.9412 52.9507C47.4965 52.4673 48.3475 51.9256 48.7345 51.5001H48.7534L60.2995 62.3493ZM17.1898 53.8195C17.6339 53.5311 17.8081 54.1685 18.1946 54.1879L18.2135 54.169L18.0587 54.5165C15.5444 56.8373 13.1661 59.2554 10.7679 61.5182C10.5165 61.7503 9.70341 62.6006 9.51 62.678C9.21997 62.8132 9.16291 62.4652 9.14357 62.1944L17.1898 53.8195ZM15.5447 52.8336C15.9702 52.5628 16.2803 53.1438 16.7252 53.1245H16.7063L8.87158 59.4878L8.9698 58.5982L15.5447 52.8336ZM50.7649 49.8172C51.4999 49.6238 61.1515 57.3023 62.7568 58.1146C63.1817 58.4045 62.9314 58.7716 62.6416 59.1195L49.779 50.958C49.2568 50.7066 50.5333 49.8752 50.746 49.8172H50.7649ZM12.8173 52.3689C13.2234 52.1562 14.0565 52.119 14.2886 52.4672L14.3075 52.4861L9.60632 55.5232L9.83864 54.7092L12.8173 52.3689ZM52.004 48.8501C52.6418 48.7336 53.2024 47.9017 53.821 48.0946L63.9751 53.5117C64.0907 53.6866 64.0517 54.4576 63.9166 54.7092L52.004 48.8501ZM11.9673 51.8288L11.871 51.9629C11.5035 52.1563 10.0707 53.3751 9.83864 53.3171C9.68441 53.2768 9.56926 52.6034 9.64599 52.4672L11.8124 51.2678L11.9673 51.8288ZM13.2045 48.3458C13.0111 48.752 12.7017 49.4501 12.3923 49.7209C12.1383 49.9543 9.58695 51.4035 9.27767 51.5001C8.87192 51.6345 8.54314 51.113 8.11796 51.1129L13.2045 48.3269V48.3458ZM13.9014 46.6648L6.97713 49.7983C6.45494 49.9724 6.41537 49.2758 6.12529 49.005L14.3585 45.7261L13.9014 46.6648ZM58.0368 46.5099L63.0477 48.5593V48.5781C63.0477 48.5781 63.3751 49.371 63.1818 49.5452L55.7551 47.1483C55.8904 46.839 57.668 46.4138 58.0368 46.5099ZM14.7514 44.2472L5.43021 47.3221C5.43021 47.0707 5.00418 46.2383 5.37166 46.1416L14.9837 43.435L14.7514 44.2472ZM63.8977 45.1746H63.8788L63.4916 46.4117C63.2983 46.5857 60.4589 45.8135 60.1465 45.6581C59.6823 45.426 59.9144 45.1165 60.0691 44.691L63.8977 45.1746ZM14.3585 45.7261L14.3642 45.7166H14.385L14.3585 45.7261ZM15.1971 42.1185C11.6967 43.0468 8.33125 43.5691 5.10156 44.3813L5.21678 43.0478L15.233 41.482L15.1971 42.1185ZM66.6836 42.8929H66.7025C65.9095 43.0863 65.2125 43.9567 64.4775 43.9374C63.9908 43.9366 59.4487 43.0079 59.1587 42.8532C59.0202 42.7716 58.0181 41.5384 58.0953 41.4612L66.6836 42.8929ZM15.1971 40.1069L14.8477 40.3015C11.8694 40.263 8.50368 41.2481 5.81552 41.1514C5.70008 41.152 5.64302 41.2866 5.68142 41.0173C5.73944 40.6885 5.95114 40.3394 6.04785 40.0106L6.20273 39.8954L15.1575 39.5082V39.4893L15.1971 40.1069ZM70.9768 38.8112C70.4353 39.4108 70.1255 40.4366 69.1391 40.4752L57.2057 39.6234L56.5862 38.6375L70.9768 38.8112ZM14.9459 38.135V38.1539L14.9365 38.1331L14.9459 38.135ZM14.6173 37.3795L14.9365 38.1331L7.07346 37.9802C7.42139 37.5936 7.57614 36.878 8.07829 36.8771L14.6173 37.3795ZM72.7372 36.0649C66.9349 36.4904 61.4418 36.6262 56.2197 36.9357L55.9496 36.0271L73.3359 34.2668L73.3567 34.2479L72.7372 36.0649ZM10.6905 34.3046C10.9814 34.3048 13.3182 34.7696 13.552 34.9052C13.6874 34.9826 14.2682 35.8332 14.1715 35.9686L14.1526 35.9497L9.45333 35.1167C9.87848 34.9614 10.2846 34.3239 10.6905 34.3046ZM73.9158 31.5394L55.8137 34.4406V33.6473C61.5189 32.2162 67.5531 31.1727 73.9158 29.6449V31.5394ZM11.5027 32.4479C12.0248 32.332 12.8369 33.0085 13.4557 32.9314L13.1856 33.5887L11.0777 33.3375C11.2128 33.1242 11.2708 32.5059 11.5027 32.4479ZM15.8733 31.4808C15.564 31.9255 14.7527 32.177 14.385 32.1192C13.5922 32.0032 12.567 31.0572 11.7161 30.9406L11.6387 30.2814L15.8733 31.4808ZM73.2982 27.1876L56.4521 31.9455C55.9105 32.1389 56.1227 31.1322 56.3161 31.0162L72.6598 25.6596L73.2982 27.1876ZM18.3684 29.7016V29.7205C18.4071 30.0105 18.3102 29.9336 18.2135 30.0302C17.9621 30.2623 17.4016 30.746 17.1501 30.6687L11.4838 27.5748L11.5216 26.7626L18.3684 29.7016ZM69.1202 22.7584C70.0674 22.4299 70.3771 23.2992 70.9183 23.6669L56.741 29.1992L57.3983 27.9998L69.1202 22.7584ZM12.6624 23.5895C12.8363 23.5895 13.4934 24.0919 13.7069 24.2279C15.7184 25.4464 17.7114 26.8777 19.8776 28.1736L19.9701 28.4361C19.5965 28.6081 19.3461 29.2543 18.9483 29.1406L12.2374 24.1712C12.2954 23.9007 12.4115 23.5516 12.6624 23.5895ZM19.9739 28.4455L19.9701 28.4361C19.9778 28.4326 19.985 28.4279 19.9928 28.4248L19.9739 28.4455ZM14.2886 20.5731L21.2696 26.3754C21.5597 26.7236 20.9789 27.1483 20.7275 27.5352L13.9203 21.134L14.2886 20.5542V20.5731ZM22.5653 24.5962C22.6811 24.867 22.0628 25.582 21.908 25.9108L16.2228 18.5993L16.6477 18.1932H16.9178L22.5653 24.5962ZM64.5757 21.1926C65.2911 20.9223 65.9674 21.4821 66.7214 21.3664H66.7403L58.3276 25.873C58.1729 25.7763 59.276 24.2471 59.5081 24.073C59.8992 23.742 64.0732 21.3859 64.5757 21.1926ZM23.6287 22.2749C23.7447 22.7197 23.3385 23.3576 23.0677 23.8218L19.0843 16.8201C19.027 16.5305 19.568 16.4923 19.7227 16.4536L23.6287 22.2749ZM63.2404 19.2188C63.6465 19.045 63.9174 19.9934 63.8013 20.1481L60.4941 22.0614L60.1843 22.0048L59.9709 21.5005L63.2404 19.2188ZM63.2593 17.4207C61.9053 18.1174 59.3907 20.728 58.2691 21.2115C57.9584 21.3468 56.32 21.5778 56.2009 21.3664L63.3953 16.4914L63.2593 17.4207ZM64.1885 12.6421L54.3442 21.1926C53.7446 21.5794 53.2405 21.018 52.6216 21.134L64.1489 11.5994L64.1885 12.6421ZM62.6605 8.25251C63.1245 7.96273 63.2598 8.33031 63.3178 8.63971L51.8094 20.5145C51.2199 20.9138 50.9486 20.3244 50.4249 20.3596L50.5912 19.9724C53.9368 16.8008 57.2638 13.4364 60.7642 10.0714C61.151 9.70393 62.3704 8.44592 62.6605 8.25251ZM22.2763 16.0475C22.6435 15.8931 22.9145 16.0465 23.0885 16.2591C23.3206 16.5492 24.4027 18.4457 24.4994 18.7938C24.6347 19.3933 24.4813 19.8774 24.3653 20.5542L22.2763 16.0475ZM50.4174 20.3785L50.3985 20.3596C50.4073 20.3587 50.4162 20.3602 50.4249 20.3596L50.4174 20.3785ZM60.224 5.81597C60.4176 5.7201 60.9763 5.98919 60.8813 6.18239L49.5089 19.8176L48.7722 19.2585L48.9082 18.8127L60.224 5.81597ZM57.4569 5.00379L48.0772 18.6767C47.8834 18.406 47.1491 18.0004 47.3424 17.5945L56.5862 4.94524L57.4569 5.00379ZM30.6115 18.1554C30.2829 18.2328 29.8377 18.3293 29.7408 17.9817L28.175 10.2641C28.0397 10.0322 29.2369 8.79563 29.2969 8.85125L30.6115 18.1554ZM32.6231 18.0591C32.3719 18.1365 31.9662 18.3481 31.8884 18.0591L31.114 6.9568L32.1792 6.18239L32.6231 18.0591ZM34.6932 17.5548L33.8999 17.8079L34.2871 5.02268L35.5828 4.53915L34.6932 17.5548ZM28.175 17.7493C28.175 17.7493 27.4016 17.5563 27.3043 17.4981C27.0722 17.3241 26.085 14.6353 26.0463 14.2097C26.0077 13.8809 26.3572 13.0492 26.5506 12.6817C26.6278 12.5272 26.5502 12.4692 26.8207 12.4305H26.8396L28.175 17.7493ZM25.1001 14.9823L25.6988 17.2469H25.7177C25.4859 17.4016 25.2531 17.6323 25.0793 17.4585C24.9807 17.3566 24.384 15.9297 24.3068 15.6981C24.2107 15.3505 24.6735 15.1956 24.9055 14.9445L25.1001 14.9823ZM36.8389 16.5688C36.723 16.9166 36.299 16.9563 36.0475 17.0335L37.5547 4.42204C37.7099 3.93983 38.5022 4.30634 38.8504 4.13306L36.8389 16.5688ZM46.7815 17.0335C46.4527 16.666 45.9484 16.1819 46.2772 15.5243L52.3893 5.50621L53.2732 5.18511L46.7815 17.0335ZM40.9394 4.65436C41.1909 4.98316 41.9834 4.84944 41.9254 5.39099L39.2376 15.0408C39.1023 15.4663 38.5998 15.6798 38.2517 15.8152H38.2328L40.9394 4.65436ZM48.7722 7.24578L45.4461 14.1701C45.3687 13.4936 45.2344 13.048 45.4858 12.236C45.6424 11.7687 47.4564 8.44891 47.7863 7.98241C48.0569 7.61512 48.3471 7.34304 48.7722 7.22689V7.24578ZM43.5516 6.66592C43.6483 7.18813 44.1706 7.53726 44.0352 8.15618C43.9382 8.65969 42.4105 12.4503 42.101 12.8177C41.985 12.9531 41.1131 13.7654 41.0358 13.7073C41.8287 11.5799 42.3329 9.02671 43.2419 6.93791C43.3192 6.7445 43.1842 6.70506 43.5516 6.64703V6.66592ZM44.8077 11.3086C44.4402 11.4245 43.8791 11.501 44.0144 11.0177C44.2272 10.2441 44.7881 9.17997 44.9814 8.36772L45.2534 8.15618H46.0769L44.8077 11.3086ZM46.0845 8.15618H46.0769L46.0845 8.13729V8.15618ZM53.2732 5.18511L53.2789 5.17756H53.2997L53.2732 5.18511Z" fill="#B76244"/>
</svg>
